<svg width="243" height="297" viewBox="0 0 243 297" fill="none" xmlns="http://www.w3.org/2000/svg">
<path d="M216.097 234.402C222.351 229.636 231.644 229.613 237.92 234.347C240.568 236.345 242.765 239.323 242.879 242.693C242.992 246.064 240.373 249.584 237.088 249.488C234.735 249.42 232.741 247.646 231.392 245.667C230.042 243.687 229.114 241.417 227.635 239.537C224.919 236.085 220.353 234.273 216.08 234.951" fill="#FFEA7C"/>
<path d="M60.9752 254.509C58.5613 258.964 57.8367 264.173 58.9348 269.144C59.856 273.313 61.5827 278.559 64.8144 283.173C71.4519 292.65 87.9014 296.796 99.1564 296.204C110.411 295.612 134.184 296.259 159.471 281.988C178.551 271.22 191.217 258.382 186.311 237.607C181.405 216.832 157.73 210.612 112.427 219.794C80.4624 226.272 66.4534 244.397 60.9752 254.509Z" fill="#E49D67"/>
<path opacity="0.2" d="M186.222 237.682C185.732 235.609 185.047 233.688 184.18 231.905C185.136 237.783 181.434 243.806 176.626 248.408C168.629 256.059 159.062 263.364 149.457 268.723C139.851 274.082 129.43 277.739 118.891 280.727C107.861 283.854 95.4095 283.5 84.1062 281.673C72.9961 279.878 62.9657 275.911 58.5271 265.449C58.5768 266.697 58.736 267.945 59.0088 269.179C59.9286 273.342 61.6533 278.581 64.8809 283.19C71.5102 292.654 87.9386 296.796 99.1794 296.204C110.42 295.613 134.162 296.259 159.418 282.006C178.473 271.252 191.122 258.431 186.222 237.682Z" fill="black"/>
<path d="M180.688 226.434C180.688 226.434 180.794 226.525 180.99 226.715C181.195 226.918 181.482 227.203 181.857 227.573C182.502 228.415 183.509 229.725 183.946 231.77C184.383 233.785 184.242 236.431 183.164 239.158C182.128 241.9 180.31 244.746 177.813 247.404C175.258 250.002 172.29 252.642 169.018 255.377C165.736 258.095 162.115 260.86 158.154 263.54C154.196 266.222 149.89 268.816 145.24 271.125C140.592 273.436 135.618 275.474 130.436 277.281C127.844 278.186 125.261 279.014 122.704 279.784C120.146 280.543 117.621 281.313 115.079 281.82C110.005 282.854 105.006 283.24 100.262 283.209C95.5134 283.194 91.0101 282.794 86.8294 282.217C82.6507 281.641 78.77 280.881 75.3451 279.757C71.9256 278.634 68.9362 277.228 66.5869 275.551C64.2241 273.895 62.4776 272.073 61.2509 270.44C60.0562 268.78 59.2949 267.374 58.8527 266.391C58.6432 265.904 58.4819 265.53 58.3676 265.263C58.2601 265.008 58.2139 264.874 58.2139 264.874C58.2139 264.874 58.2833 264.998 58.401 265.248C58.5227 265.511 58.6942 265.88 58.9173 266.359C59.3786 267.33 60.1569 268.717 61.3598 270.354C62.596 271.962 64.3431 273.755 66.6978 275.383C69.0389 277.031 72.0148 278.41 75.4199 279.512C78.8312 280.615 82.6962 281.356 86.8682 281.919C91.0401 282.482 95.5311 282.87 100.262 282.875C104.991 282.898 109.965 282.505 115.01 281.472C117.534 280.966 120.047 280.198 122.605 279.437C125.158 278.667 127.736 277.841 130.322 276.938C135.493 275.134 140.455 273.104 145.09 270.805C149.726 268.508 154.022 265.929 157.976 263.261C161.932 260.596 165.551 257.846 168.835 255.143C172.105 252.427 175.086 249.794 177.634 247.226C180.122 244.602 181.939 241.789 182.98 239.085C184.064 236.394 184.221 233.793 183.813 231.802C183.404 229.783 182.428 228.475 181.804 227.623C181.443 227.244 181.165 226.952 180.968 226.744C180.778 226.543 180.688 226.434 180.688 226.434Z" fill="#263238"/>
<path d="M67.3394 273.38C67.3326 273.391 67.2496 273.344 67.0986 273.246C66.9503 273.143 66.721 273.005 66.4516 272.79C65.9025 272.376 65.1433 271.719 64.3234 270.787C63.5057 269.855 62.6348 268.635 61.9361 267.13C61.2258 265.636 60.7081 263.849 60.5625 261.927C60.4346 260.003 60.7013 258.157 61.1993 256.575C61.6905 254.985 62.3872 253.651 63.0825 252.619C63.7771 251.585 64.4479 250.833 64.9426 250.352C65.1827 250.104 65.3943 249.938 65.529 249.817C65.6671 249.699 65.7433 249.643 65.7515 249.652C65.812 249.711 64.6119 250.686 63.2907 252.762C61.9735 254.797 60.6509 258.123 60.9149 261.901C61.1891 265.677 62.9471 268.775 64.5112 270.618C66.0869 272.497 67.3918 273.316 67.3394 273.38Z" fill="white"/>
<path d="M74.5553 276.993C74.5226 277.088 73.5538 276.823 72.3917 276.402C71.229 275.981 70.3133 275.563 70.3459 275.469C70.3786 275.374 71.3467 275.638 72.5094 276.059C73.6715 276.48 74.5872 276.898 74.5553 276.993Z" fill="white"/>
<path d="M16.7983 137.774C13.2422 136.809 2.87158 135.285 0.860471 140.454C-0.100183 142.922 -0.806386 145.225 1.87964 147.768C5.38684 151.088 13.5898 154.178 15.9983 154.985C18.804 155.924 24.5992 157.56 27.9908 156.107C29.9447 155.27 31.1646 152.662 31.119 150.64C31.0047 145.647 24.57 139.882 16.7983 137.774Z" fill="#AD3030"/>
<path d="M16.8292 138.081C15.1569 137.619 2.70514 134.688 1.14101 141.139C-0.231933 146.802 12.0933 150.781 16.5156 152.262C20.9378 153.744 29.7184 155.663 30.6675 150.987C31.7016 145.888 23.4674 139.917 16.8292 138.081Z" fill="#F75757"/>
<path d="M14.3119 145.449C14.3139 145.437 14.4173 145.565 14.3418 145.798C14.2887 146.05 13.939 146.235 13.5539 146.274C12.7811 146.407 11.6136 146.33 10.5835 145.601C10.5237 145.544 10.4611 145.466 10.4529 145.36C10.4427 145.256 10.5033 145.154 10.5754 145.104C10.721 144.999 10.8747 144.989 11.0088 144.956C11.285 144.898 11.5537 144.845 11.8136 144.811C12.3327 144.737 12.8124 144.762 13.2008 144.842C13.592 144.918 13.89 145.066 14.0697 145.201C14.2472 145.337 14.3119 145.449 14.3119 145.449C14.3016 145.458 14.22 145.367 14.037 145.248C13.854 145.131 13.5635 145.004 13.1818 144.943C12.8001 144.879 12.3368 144.864 11.8299 144.944C11.5762 144.981 11.3115 145.036 11.0367 145.096C10.8992 145.127 10.7543 145.147 10.6591 145.219C10.5631 145.288 10.5747 145.403 10.6788 145.494C11.6381 146.17 12.7886 146.282 13.539 146.172C13.9254 146.14 14.2241 145.997 14.2901 145.777C14.3744 145.573 14.2996 145.451 14.3119 145.449Z" fill="#AD3030"/>
<path d="M16.1974 146.375C16.1791 146.368 16.3349 146.295 16.4662 146.478C16.5771 146.671 16.5315 146.958 16.5288 147.301C16.507 147.639 16.4335 148.097 16.0791 148.432C15.7178 148.789 15.0912 148.731 14.6578 148.428C14.1918 148.147 13.989 147.466 14.3074 147.055C14.4517 146.856 14.6469 146.741 14.8211 146.644C14.998 146.551 15.1606 146.466 15.3198 146.399C15.6355 146.262 15.9307 146.249 16.1172 146.301C16.3056 146.351 16.3845 146.435 16.3798 146.439C16.3879 146.459 15.9743 146.184 15.3593 146.494C15.0769 146.651 14.6687 146.803 14.4142 147.134C14.1578 147.477 14.3197 148.052 14.7374 148.308C15.1381 148.584 15.6851 148.634 15.9933 148.333C16.3104 148.044 16.3975 147.623 16.4294 147.293C16.4471 146.959 16.4995 146.663 16.4199 146.509C16.3254 146.347 16.1913 146.384 16.1974 146.375Z" fill="#AD3030"/>
<path d="M20.2413 148.186C20.2413 148.186 20.3243 148.272 20.3509 148.478C20.3638 148.579 20.3624 148.707 20.3196 148.849C20.276 148.984 20.1855 149.159 19.9889 149.22C19.612 149.265 19.2004 149.117 18.7969 148.896C18.3935 148.689 17.9166 148.401 17.6676 147.879C17.5526 147.629 17.4866 147.314 17.6424 147.053C17.8172 146.783 18.1459 146.796 18.3622 146.844C18.8208 146.951 19.199 147.143 19.4916 147.342C20.093 147.728 20.2753 148.181 20.2413 148.186C20.2304 148.191 20.1896 148.087 20.0651 147.941C19.9413 147.794 19.727 147.611 19.4372 147.427C19.148 147.245 18.7725 147.068 18.337 146.974C18.1288 146.932 17.8724 146.94 17.7587 147.129C17.6451 147.316 17.688 147.59 17.7948 147.816C18.0173 148.286 18.4595 148.566 18.8555 148.776C19.2467 149.004 19.6487 149.142 19.9631 149.119C20.2611 149.015 20.3026 148.649 20.2951 148.481C20.2883 148.289 20.2264 148.191 20.2413 148.186Z" fill="#AD3030"/>
<path d="M12.9131 143.828C12.8954 143.821 13.0614 143.914 12.9777 144.158C12.8573 144.381 12.4858 144.457 12.115 144.364C11.7435 144.278 11.304 144.173 10.8285 143.995C10.3618 143.803 9.83176 143.581 9.44328 143.074C9.3528 142.94 9.34055 142.707 9.4807 142.582C9.61473 142.459 9.77733 142.449 9.91817 142.446C10.2005 142.46 10.459 142.496 10.7087 142.548C11.2068 142.649 11.634 142.831 11.9667 143.024C12.2987 143.221 12.5375 143.426 12.6913 143.576C12.8471 143.726 12.9192 143.823 12.9131 143.828C12.892 143.851 12.5797 143.481 11.9191 143.113C11.5884 142.936 11.17 142.771 10.6836 142.678C10.4427 142.632 10.1794 142.598 9.91817 142.588C9.79298 142.588 9.65623 142.61 9.57799 142.687C9.49839 142.763 9.49703 142.889 9.56575 143C9.89436 143.432 10.4284 143.687 10.8747 143.87C11.3367 144.05 11.7742 144.166 12.1368 144.263C12.4899 144.367 12.8205 144.301 12.9294 144.13C13.0151 143.948 12.8865 143.829 12.9131 143.828Z" fill="#AD3030"/>
<path d="M14.7278 143.066C14.7278 143.066 14.7931 143.178 14.7421 143.393C14.7155 143.496 14.6393 143.628 14.4931 143.693C14.3509 143.761 14.1638 143.758 13.9855 143.701C13.6379 143.572 13.2412 143.409 12.8208 143.154C12.4105 142.899 11.9778 142.508 11.7914 141.94C11.7792 141.896 11.7669 141.853 11.7553 141.812L11.7547 141.809L11.754 141.803C11.7506 141.77 11.7479 141.741 11.7451 141.712L11.7438 141.701L11.7458 141.692C11.8118 141.37 12.1275 141.201 12.3921 141.213C12.665 141.219 12.8936 141.342 13.0902 141.46C13.4787 141.703 13.8222 141.93 14.0869 142.159C14.3516 142.386 14.5366 142.603 14.6339 142.777C14.7312 142.95 14.7346 143.066 14.7278 143.066C14.7162 143.07 14.6951 142.962 14.589 142.806C14.4829 142.65 14.2917 142.448 14.0257 142.237C13.7603 142.025 13.4133 141.808 13.0256 141.574C12.8337 141.463 12.6187 141.356 12.3915 141.354C12.1704 141.345 11.9288 141.493 11.8853 141.719L11.886 141.699C11.8887 141.727 11.8921 141.756 11.8955 141.789L11.8941 141.779C11.9043 141.817 11.9159 141.856 11.9275 141.896C12.0969 142.415 12.4983 142.79 12.8908 143.042C13.2888 143.293 13.6909 143.471 14.0168 143.605C14.3502 143.742 14.6448 143.577 14.6904 143.377C14.7523 143.186 14.7128 143.066 14.7278 143.066Z" fill="#AD3030"/>
<path d="M18.4295 142.972C18.4295 142.972 18.5003 143.068 18.5207 143.277C18.5432 143.472 18.4928 143.836 18.1615 144.048C17.8363 144.256 17.3988 144.278 16.9307 144.307C16.6947 144.31 16.4239 144.279 16.1932 144.119C15.9667 143.962 15.8014 143.706 15.7415 143.418C15.5938 142.736 16.1034 142.144 16.6062 141.996C17.1294 141.836 17.6104 142.015 17.8982 142.226L17.8948 142.224C18.1513 142.385 18.2758 142.599 18.3472 142.738C18.418 142.884 18.4363 142.97 18.4295 142.972C18.401 143 18.3241 142.606 17.8512 142.306L17.8478 142.304C17.5689 142.117 17.1144 141.968 16.6457 142.122C16.1939 142.263 15.7483 142.8 15.8803 143.388C15.932 143.641 16.0776 143.866 16.2708 144.002C16.4647 144.138 16.7049 144.173 16.93 144.173C17.3838 144.154 17.8199 144.137 18.1084 143.962C18.4064 143.787 18.469 143.468 18.4656 143.28C18.4629 143.082 18.4166 142.977 18.4295 142.972Z" fill="#AD3030"/>
<path d="M21.7703 145.537C21.7765 145.533 21.7812 145.674 21.6179 145.824C21.4621 145.983 21.1247 146.044 20.7675 145.961C20.3613 145.88 19.9456 145.798 19.5156 145.713C19.283 145.66 19.0278 145.632 18.7741 145.508C18.5291 145.397 18.2761 145.086 18.4046 144.746C18.4944 144.541 18.6843 144.444 18.8489 144.38C19.0176 144.318 19.1884 144.277 19.3564 144.255C19.6932 144.211 20.0177 144.24 20.3062 144.302C20.5892 144.36 20.8614 144.424 21.0798 144.545C21.2988 144.662 21.4594 144.814 21.5805 144.946L21.5295 145.003L21.5288 145.002L21.5785 144.944C21.8894 145.257 21.7792 145.56 21.7703 145.537C21.7533 145.547 21.8275 145.271 21.5268 145L21.5764 144.942L21.5771 144.943L21.5261 144.999C21.4016 144.878 21.2424 144.741 21.0335 144.638C20.8253 144.533 20.5682 144.478 20.2817 144.427C20.0014 144.372 19.6925 144.35 19.3735 144.395C19.0748 144.449 18.6741 144.524 18.5346 144.803C18.4441 145.028 18.6203 145.283 18.8353 145.38C19.0544 145.491 19.3081 145.526 19.5415 145.581C19.9688 145.676 20.3824 145.769 20.7859 145.86C21.1349 145.951 21.4281 145.91 21.5832 145.78C21.7418 145.658 21.7581 145.53 21.7703 145.537Z" fill="#AD3030"/>
<path d="M22.2785 147.196C22.2846 147.192 22.3594 147.288 22.5111 147.455C22.571 147.544 22.7071 147.64 22.6833 147.848C22.6139 148.045 22.3785 148.098 22.1819 148.077C21.3913 147.946 20.3347 147.604 19.2843 146.975C19.155 146.897 19.0101 146.804 18.9305 146.643C18.8468 146.495 18.8665 146.261 19.0189 146.153C19.3244 145.961 19.619 146.093 19.868 146.116C20.3837 146.199 20.8504 146.304 21.2212 146.459C21.5934 146.612 21.8628 146.803 22.0335 146.948C22.205 147.093 22.2785 147.196 22.2785 147.196C22.2567 147.225 21.9199 146.836 21.1851 146.555C20.8198 146.417 20.3619 146.325 19.8476 146.249C19.5972 146.219 19.2999 146.129 19.1033 146.267C19.0135 146.333 18.9978 146.465 19.057 146.579C19.1114 146.692 19.2298 146.775 19.3564 146.85C20.3857 147.469 21.4348 147.823 22.1921 147.975C22.3751 148.004 22.5608 147.949 22.6078 147.825C22.6357 147.703 22.5254 147.576 22.469 147.491C22.3309 147.314 22.2683 147.203 22.2785 147.196Z" fill="#AD3030"/>
<path d="M6.08495 138.333C6.08018 138.437 5.64 138.49 5.13994 138.663C4.63716 138.829 4.25344 139.055 4.18881 138.974C4.12418 138.904 4.45415 138.51 5.02904 138.317C5.60258 138.122 6.09583 138.237 6.08495 138.333Z" fill="white"/>
<path d="M3.85678 144.417C3.83909 144.453 3.55538 144.361 3.20772 144.034C2.86007 143.712 2.492 143.124 2.35729 142.395C2.2253 141.664 2.36069 140.979 2.57092 140.55C2.77979 140.116 3.01179 139.925 3.04104 139.952C3.08663 139.988 2.93559 140.228 2.8036 140.646C2.66889 141.062 2.58861 141.671 2.70563 142.328C2.82741 142.982 3.11792 143.521 3.39074 143.859C3.66084 144.199 3.8874 144.366 3.85678 144.417Z" fill="white"/>
<path d="M180.388 77.4604C175.619 80.5612 163.127 90.9484 166.697 98.6642C168.401 102.349 170.19 105.568 175.781 105.119C183.081 104.533 195.03 98.2823 198.427 96.3434C202.385 94.084 210.225 89.096 212.171 83.664C213.292 80.5339 211.704 76.4033 209.439 74.3471C203.845 69.2677 190.809 70.6851 180.388 77.4604Z" fill="#AD3030"/>
<path d="M180.757 77.7467C178.505 79.1954 162.299 90.5189 167.742 99.0566C172.52 106.551 189.743 96.4669 195.983 92.9054C202.222 89.3438 213.489 81.2049 209.35 75.2296C204.837 68.7147 189.697 71.9948 180.757 77.7467Z" fill="#F75757"/>
<path d="M186.211 88.3409C186.199 88.3312 186.441 88.35 186.611 88.6761C186.694 88.8297 186.743 89.0636 186.675 89.31C186.616 89.5579 186.472 89.8065 186.302 90.0613C185.641 91.0842 184.336 92.343 182.484 92.7676C182.363 92.7773 182.222 92.7668 182.109 92.6747C181.996 92.5867 181.951 92.4289 181.969 92.3005C182.004 92.0393 182.15 91.8515 182.254 91.6616C182.478 91.2818 182.699 90.9166 182.931 90.5822C183.389 89.907 183.911 89.3806 184.4 89.0133C184.887 88.6398 185.355 88.4478 185.687 88.3779C186.021 88.3102 186.211 88.3409 186.211 88.3409C186.21 88.3563 186.024 88.35 185.7 88.4338C185.379 88.519 184.931 88.7201 184.461 89.0964C183.988 89.4685 183.484 89.9901 183.039 90.6604C182.813 90.9927 182.595 91.3558 182.374 91.7363C182.267 91.9276 182.133 92.1154 182.111 92.3165C182.078 92.5225 182.258 92.6565 182.474 92.623C184.239 92.216 185.559 90.9941 186.22 90.0034C186.394 89.7548 186.537 89.5188 186.6 89.2898C186.669 89.0608 186.633 88.8527 186.562 88.7019C186.418 88.3877 186.2 88.3514 186.211 88.3409Z" fill="#AD3030"/>
<path d="M189.191 87.1276C189.17 87.1423 189.255 86.8979 189.581 86.9398C189.735 86.9649 189.889 87.0843 190.035 87.2295C190.184 87.3727 190.355 87.5353 190.532 87.7301C190.876 88.1086 191.292 88.6671 191.287 89.4107C191.289 89.7759 191.128 90.1592 190.851 90.4343C190.579 90.7136 190.219 90.9105 189.827 91.011C189.435 91.1102 189.009 91.085 188.663 90.8958C188.318 90.7157 188.059 90.3798 187.997 90.0133C187.931 89.6495 188.004 89.3074 188.079 89.0072C188.159 88.7062 188.234 88.4283 188.325 88.177C188.499 87.6715 188.786 87.3189 189.033 87.1569C189.28 86.9893 189.45 86.9852 189.45 86.9852C189.455 86.9998 189.292 87.0284 189.065 87.203C188.837 87.3741 188.578 87.7155 188.42 88.2119C188.337 88.4577 188.267 88.7384 188.193 89.0365C188.124 89.3332 188.062 89.6607 188.126 89.9874C188.184 90.3135 188.413 90.606 188.727 90.7694C189.04 90.9384 189.427 90.9621 189.793 90.8693C190.525 90.6919 191.166 90.0985 191.157 89.4072C191.169 88.7237 190.788 88.1798 190.457 87.7993C190.104 87.4306 189.835 87.0655 189.57 86.9956C189.285 86.9398 189.19 87.1436 189.191 87.1276Z" fill="#AD3030"/>
<path d="M195.398 84.3498C195.398 84.3498 195.576 84.354 195.823 84.5397C195.944 84.6312 196.081 84.7673 196.188 84.9621C196.288 85.1506 196.379 85.432 196.245 85.7078C195.908 86.1735 195.32 86.494 194.658 86.7258C194.01 86.9729 193.205 87.218 192.388 86.9653C191.999 86.8396 191.597 86.5896 191.479 86.1595C191.37 85.7036 191.71 85.3482 191.985 85.1485C192.574 84.7331 193.177 84.4936 193.695 84.3616C194.214 84.2318 194.651 84.1941 194.95 84.2269C195.251 84.259 195.398 84.3498 195.398 84.3498C195.395 84.363 195.24 84.2967 194.947 84.2828C194.655 84.2674 194.228 84.3204 193.721 84.4608C193.216 84.6025 192.627 84.8497 192.063 85.2567C191.796 85.4536 191.521 85.7692 191.614 86.1246C191.707 86.473 192.064 86.7118 192.43 86.827C193.192 87.0644 193.968 86.8396 194.613 86.6001C195.272 86.383 195.847 86.0618 196.157 85.6589C196.274 85.4383 196.208 85.1806 196.119 85.0005C196.025 84.8148 195.902 84.6786 195.79 84.5851C195.563 84.3931 195.39 84.3665 195.398 84.3498Z" fill="#AD3030"/>
<path d="M182.973 88.2659C182.973 88.2659 183.019 88.2603 183.104 88.284C183.183 88.3064 183.328 88.3636 183.388 88.5403C183.499 88.9005 183.201 89.3991 182.713 89.7237C182.23 90.0589 181.655 90.4561 180.965 90.8157C180.621 90.9938 180.246 91.1613 179.84 91.2835C179.433 91.3903 179.007 91.5286 178.533 91.4483C178.301 91.4134 178.056 91.2011 178.062 90.9295C178.066 90.6663 178.218 90.4701 178.359 90.3081C178.665 90.0002 178.975 89.7384 179.289 89.5045C179.916 89.036 180.557 88.7309 181.112 88.5452C182.236 88.1898 182.973 88.2659 182.973 88.2659C182.977 88.3036 182.243 88.2687 181.144 88.6422C180.601 88.837 179.978 89.1463 179.367 89.612C179.062 89.8424 178.75 90.1105 178.461 90.4045C178.328 90.5539 178.203 90.7375 178.204 90.9274C178.203 91.1201 178.362 91.2696 178.564 91.3066C178.971 91.3792 179.41 91.2507 179.801 91.1474C180.198 91.0301 180.566 90.8688 180.908 90.6963C181.59 90.3486 182.171 89.9604 182.656 89.6392C183.14 89.3348 183.417 88.8733 183.336 88.5577C183.293 88.4055 183.168 88.3427 183.095 88.3127C183.017 88.2798 182.972 88.2729 182.973 88.2659Z" fill="#AD3030"/>
<path d="M184.03 85.3731C184.03 85.3731 184.215 85.4241 184.389 85.7047C184.471 85.8416 184.532 86.0615 184.452 86.2905C184.378 86.5188 184.185 86.7255 183.938 86.8687C183.436 87.1305 182.84 87.416 182.127 87.6325C181.424 87.8378 180.552 87.9257 179.747 87.5543C179.685 87.5271 179.627 87.4928 179.572 87.4642L179.568 87.4621L179.564 87.4586C179.525 87.4286 179.49 87.4014 179.456 87.3755L179.447 87.3686L179.441 87.3602C179.171 86.9699 179.307 86.4476 179.586 86.1628C179.869 85.8625 180.237 85.7271 180.569 85.6224C181.239 85.4262 181.846 85.2635 182.369 85.193C182.891 85.121 183.321 85.1308 183.61 85.1937C183.902 85.2572 184.03 85.3731 184.03 85.3731C184.024 85.3857 183.886 85.2928 183.602 85.2474C183.319 85.2027 182.895 85.2083 182.384 85.2921C181.871 85.3745 181.27 85.5469 180.607 85.7487C180.282 85.8542 179.935 85.991 179.687 86.2598C179.438 86.514 179.338 86.965 179.555 87.2743L179.541 87.2596C179.575 87.2862 179.611 87.3134 179.649 87.3427L179.641 87.3378C179.693 87.3651 179.747 87.3972 179.806 87.4223C180.564 87.7728 181.403 87.6981 182.093 87.504C182.787 87.3015 183.398 87.0216 183.888 86.78C184.125 86.6494 184.304 86.4658 184.377 86.264C184.455 86.0629 184.41 85.8667 184.34 85.7334C184.193 85.4604 184.017 85.3864 184.03 85.3731Z" fill="#AD3030"/>
<path d="M187.791 81.0019C187.791 81.0019 187.965 81.0299 188.21 81.2261C188.442 81.4062 188.779 81.8391 188.665 82.4298C188.555 83.0086 188.122 83.5357 187.665 84.1013C187.425 84.375 187.112 84.648 186.707 84.7443C186.309 84.8393 185.864 84.7646 185.496 84.5383C185.07 84.2898 184.798 83.8408 184.708 83.3912C184.614 82.9388 184.679 82.48 184.851 82.1051C185.213 81.3462 185.901 80.9768 186.426 80.8623L186.422 80.863C186.858 80.7331 187.221 80.8078 187.449 80.8672C187.679 80.9321 187.791 81.0019 187.791 81.0019C187.787 81.0124 187.667 80.9649 187.437 80.9154C187.21 80.8714 186.856 80.8162 186.449 80.951L186.448 80.9517L186.446 80.9524C185.943 81.0773 185.295 81.446 184.966 82.161C184.642 82.841 184.765 83.9393 185.568 84.4141C185.907 84.6228 186.316 84.6912 186.676 84.6068C187.039 84.5223 187.333 84.2744 187.569 84.0119C188.023 83.4638 188.458 82.9402 188.568 82.4109C188.685 81.8705 188.391 81.4607 188.176 81.2707C187.95 81.0676 187.783 81.0166 187.791 81.0019Z" fill="#AD3030"/>
<path d="M194.089 79.8167C194.089 79.8167 194.124 79.8467 194.162 79.9235C194.199 80.0003 194.238 80.126 194.231 80.2915C194.237 80.6315 193.956 81.0721 193.492 81.3953C193.008 81.7556 192.478 82.1501 191.908 82.5746C191.607 82.7875 191.309 83.0522 190.917 83.2114C190.548 83.3747 189.967 83.3363 189.744 82.863C189.619 82.5627 189.705 82.2513 189.806 81.9986C189.912 81.7423 190.044 81.5049 190.195 81.2899C190.495 80.8584 190.86 80.5149 191.227 80.2468C191.585 79.978 191.934 79.7322 192.289 79.6051C192.642 79.4739 192.973 79.4452 193.243 79.4397L193.249 79.5165H193.247L193.24 79.4397C193.553 79.4369 193.796 79.5074 193.926 79.6219C194.058 79.7273 194.089 79.8167 194.089 79.8167C194.09 79.8439 193.865 79.4585 193.244 79.5172L193.236 79.4403H193.238L193.245 79.5172C192.98 79.5325 192.66 79.5702 192.325 79.7036C191.987 79.8334 191.655 80.075 191.299 80.3494C190.944 80.6161 190.593 80.9527 190.306 81.3709C190.162 81.5789 190.036 81.8087 189.935 82.0537C189.839 82.2932 189.773 82.5718 189.873 82.8029C190.04 83.1702 190.528 83.2274 190.868 83.078C191.227 82.9356 191.529 82.6772 191.832 82.465C192.408 82.0502 192.945 81.6641 193.433 81.3115C193.897 81.0001 194.162 80.6057 194.176 80.2859C194.203 79.9717 194.073 79.8216 194.089 79.8167Z" fill="#AD3030"/>
<path d="M196.439 80.9614C196.439 80.9614 196.624 80.9746 196.964 80.9774C197.122 81.0012 197.371 80.9558 197.557 81.1848C197.692 81.4529 197.514 81.7706 197.286 81.971C196.32 82.7376 194.841 83.5964 193.061 84.1515C192.841 84.2192 192.595 84.2862 192.35 84.2143C192.111 84.1578 191.893 83.9106 191.931 83.6418C192.029 83.1202 192.474 82.9094 192.76 82.6468C193.388 82.1379 193.986 81.7078 194.539 81.4383C195.09 81.1667 195.577 81.0508 195.913 81.0012C196.249 80.9495 196.439 80.9614 196.439 80.9614C196.448 81.0061 195.667 80.9788 194.583 81.5311C194.046 81.8076 193.463 82.2391 192.841 82.7523C192.548 83.0113 192.131 83.2522 192.069 83.6557C192.044 83.8492 192.191 84.0237 192.389 84.0754C192.583 84.1333 192.804 84.0803 193.02 84.0125C194.778 83.4665 196.26 82.6217 197.219 81.8949C197.443 81.7099 197.586 81.4285 197.489 81.2274C197.366 81.0521 197.114 81.0584 196.96 81.0347C196.622 81.0144 196.436 80.9753 196.439 80.9614Z" fill="#AD3030"/>
<path d="M169.822 90.4176C169.895 90.4923 169.453 91.0355 169.112 91.8133C168.762 92.5862 168.65 93.2851 168.548 93.2768C168.455 93.2789 168.41 92.5066 168.79 91.6618C169.164 90.8149 169.763 90.3443 169.822 90.4176Z" fill="white"/>
<path d="M174.169 99.339C174.182 99.3718 173.782 99.5785 173.072 99.6211C172.367 99.6693 171.362 99.4738 170.438 98.8789C169.516 98.2798 168.909 97.4336 168.648 96.7605C168.378 96.0847 168.388 95.6253 168.422 95.6232C168.484 95.6113 168.564 96.0435 168.874 96.6502C169.178 97.257 169.767 98.0117 170.627 98.571C171.489 99.1247 172.406 99.3446 173.071 99.3641C173.738 99.3893 174.153 99.2769 174.169 99.339Z" fill="white"/>
<path d="M94.2899 147.632C105.485 152.352 111.923 151.412 120.926 153.764C131.302 156.474 142.661 154.262 152.503 149.936C157.227 147.86 162.46 144.932 167.173 147.033C168.185 147.484 169.094 148.148 170.092 148.627C171.32 149.217 172.659 149.516 173.979 149.83C176.776 150.496 179.783 151.408 181.449 153.807C183.114 156.206 182.267 160.456 179.426 160.875C180.789 161.222 181.195 163.086 180.806 164.47C180.417 165.855 179.525 167.066 179.263 168.482C178.88 170.558 179.91 172.604 180.907 174.453C185.5 174.142 189.753 178.864 189.09 183.54C188.946 184.556 188.61 185.549 188.623 186.575C188.638 187.752 189.11 188.87 189.258 190.037C189.659 193.2 187.269 196.461 184.195 196.942C184.369 200.516 182.108 204.077 178.852 205.359C180.234 205.731 181.237 207.224 181.086 208.682C180.935 210.14 179.648 211.383 178.221 211.449C180.851 216.034 177.763 222.876 172.655 223.783C172.646 227.721 169.894 231.017 167.3 233.919C166.021 235.349 164.595 236.864 162.726 237.167C159.668 237.662 157.02 234.734 153.933 234.502C152.588 234.401 151.251 234.824 149.903 234.789C148.555 234.753 147.034 234.02 146.806 232.656C146.463 234.342 144.501 235.235 142.843 234.97C141.185 234.705 139.784 233.611 138.46 232.553C141.241 236.751 140.29 243.09 136.408 246.235C132.525 249.381 126.297 248.86 122.963 245.109C122.509 246.788 120.598 247.681 118.906 247.529C117.215 247.376 115.699 246.441 114.252 245.53C113.358 247.787 112.103 250.358 109.764 250.777C109.032 250.909 108.249 250.807 107.572 251.12C106.429 251.65 106.065 253.085 105.588 254.275C104.517 256.954 102.113 259.114 99.3197 259.522C96.5255 259.93 93.4796 258.381 92.374 255.717C92.0522 257.709 90.2364 259.334 88.2695 259.392C86.3026 259.449 84.4003 257.933 83.9676 255.963C82.0171 257.596 79.0467 256.39 77.1376 254.706C73.5998 251.585 71.3893 246.932 71.1709 242.15C70.5961 243.922 68.1958 244.427 66.5677 243.592C64.9396 242.756 63.9368 241.051 63.0721 239.408C63.0013 242.23 60.6759 244.809 57.9395 245.099C55.2133 245.388 52.5981 243.598 51.0591 241.271C49.5202 238.945 48.8473 236.145 48.203 233.411C47.0906 228.693 45.9715 223.829 46.6865 219.03C47.1029 216.236 48.1282 213.581 49.1453 210.955C50.6509 207.067 52.1633 203.165 54.1751 199.528C58.7246 191.299 65.6172 184.764 71.7907 177.738C77.9636 170.711 86.3645 161.022 87.6531 151.654C88.0477 148.788 87.5177 146.047 87.8191 145.549C88.5308 144.375 94.2899 147.632 94.2899 147.632Z" fill="#65AB44"/>
<path d="M87.82 145.546C87.822 145.541 87.8806 145.556 87.9935 145.591C88.1255 145.635 88.2888 145.69 88.4915 145.757C88.9276 145.908 89.5705 146.131 90.391 146.439C92.0355 147.047 94.3983 147.972 97.2966 149.169C103.105 151.531 111.001 155.12 120.026 158.252C124.521 159.86 128.897 161.124 132.98 161.697C137.058 162.291 140.787 162.341 143.891 162.092C147 161.867 149.481 161.345 151.179 160.947C152.029 160.746 152.683 160.567 153.125 160.439C153.332 160.385 153.498 160.341 153.632 160.305C153.747 160.277 153.806 160.265 153.808 160.272C153.811 160.278 153.754 160.301 153.643 160.341C153.512 160.385 153.348 160.441 153.146 160.51C152.71 160.66 152.06 160.862 151.212 161.084C149.52 161.526 147.035 162.089 143.911 162.348C140.794 162.631 137.041 162.608 132.935 162.029C128.822 161.471 124.412 160.207 119.91 158.596C110.87 155.457 102.98 151.827 97.202 149.407C94.318 148.18 91.9708 147.22 90.3427 146.572C89.5488 146.256 88.9222 146.007 88.4677 145.826C88.2704 145.745 88.1105 145.679 87.9819 145.626C87.8724 145.579 87.818 145.552 87.82 145.546Z" fill="white"/>
<path d="M148.399 166.988C148.398 166.994 148.343 166.995 148.235 166.992C148.107 166.985 147.951 166.976 147.76 166.965C147.313 166.937 146.703 166.899 145.934 166.851C144.347 166.758 142.05 166.702 139.206 166.614C136.369 166.502 132.96 166.381 129.259 165.581C125.535 164.825 121.727 163.013 117.869 161.002C110.087 157.094 103.045 153.557 97.9139 150.98C95.3891 149.693 93.3365 148.647 91.8839 147.907C91.1968 147.548 90.6518 147.264 90.2525 147.055C90.0837 146.963 89.9456 146.887 89.832 146.825C89.7381 146.772 89.6919 146.742 89.6946 146.736C89.6973 146.73 89.7497 146.749 89.8483 146.792C89.966 146.845 90.1089 146.91 90.2844 146.989C90.6913 147.183 91.2451 147.447 91.9458 147.78C93.41 148.495 95.4803 149.506 98.0261 150.75C103.169 153.303 110.228 156.805 118.028 160.676C121.886 162.688 125.65 164.488 129.328 165.253C132.989 166.063 136.383 166.212 139.216 166.356C142.054 166.477 144.356 166.573 145.942 166.708C146.735 166.774 147.35 166.835 147.766 166.891C147.956 166.916 148.111 166.937 148.239 166.954C148.345 166.971 148.399 166.982 148.399 166.988Z" fill="white"/>
<path d="M158.41 200.824C158.408 200.829 158.333 200.808 158.189 200.76C158.028 200.704 157.818 200.631 157.553 200.54C156.997 200.336 156.167 200.061 155.128 199.625C153.036 198.793 150.041 197.48 146.523 195.487C144.761 194.498 142.877 193.329 140.908 191.991C138.952 190.633 136.906 189.113 134.852 187.383C130.747 183.926 126.61 179.638 122.825 174.696C120.898 172.258 119.047 169.851 117.061 167.716C115.087 165.571 113.013 163.668 110.978 161.934C106.892 158.478 102.964 155.686 99.6424 153.39C96.3114 151.103 93.5689 149.325 91.6782 148.088C90.7482 147.478 90.0189 147 89.5018 146.662C89.2677 146.504 89.082 146.38 88.9398 146.284C88.8146 146.198 88.7514 146.15 88.7548 146.144C88.7582 146.139 88.8269 146.176 88.9589 146.252C89.1058 146.34 89.297 146.454 89.5392 146.599C90.0644 146.924 90.8053 147.382 91.751 147.967C93.6642 149.167 96.4284 150.913 99.7805 153.175C103.124 155.447 107.073 158.221 111.185 161.675C113.232 163.408 115.321 165.314 117.313 167.471C119.315 169.619 121.174 172.03 123.1 174.467C126.879 179.401 130.98 183.664 135.059 187.124C137.098 188.854 139.129 190.377 141.071 191.741C143.026 193.084 144.895 194.262 146.644 195.262C150.133 197.278 153.106 198.622 155.177 199.494C156.207 199.949 157.028 200.246 157.576 200.47C157.835 200.577 158.042 200.66 158.2 200.725C158.341 200.785 158.412 200.817 158.41 200.824Z" fill="white"/>
<path d="M128.865 219.801C128.858 219.802 128.838 219.728 128.803 219.582C128.767 219.417 128.719 219.203 128.659 218.933C128.535 218.338 128.36 217.498 128.137 216.429C127.683 214.255 127.047 211.105 126.18 207.231C125.303 203.362 124.197 198.764 122.633 193.765C121.87 191.259 120.944 188.672 119.912 186.022C118.829 183.394 117.673 180.682 116.237 178.038C115.901 177.363 115.531 176.715 115.156 176.074C114.779 175.434 114.43 174.784 114.04 174.166C113.247 172.937 112.495 171.707 111.66 170.566C110.015 168.266 108.281 166.159 106.579 164.2C103.168 160.286 99.8721 156.97 97.0705 154.23C94.262 151.494 91.9304 149.344 90.3166 147.861C89.522 147.134 88.8981 146.563 88.4552 146.157C88.2558 145.971 88.0973 145.823 87.9749 145.709C87.8681 145.606 87.815 145.552 87.8191 145.547C87.8231 145.542 87.8837 145.587 87.9987 145.681C88.1266 145.788 88.2926 145.927 88.5015 146.102C88.9423 146.474 89.5859 147.03 90.4071 147.755C92.0502 149.205 94.4082 151.328 97.2419 154.043C100.069 156.764 103.388 160.064 106.822 163.977C108.535 165.936 110.281 168.045 111.94 170.355C112.781 171.503 113.54 172.738 114.338 173.973C114.731 174.594 115.083 175.248 115.461 175.891C115.838 176.535 116.211 177.187 116.548 177.865C117.991 180.522 119.15 183.248 120.233 185.887C121.264 188.55 122.187 191.148 122.943 193.664C124.495 198.682 125.577 203.294 126.423 207.175C127.26 211.059 127.859 214.218 128.271 216.401C128.467 217.476 128.62 218.32 128.728 218.919C128.773 219.192 128.809 219.409 128.837 219.575C128.862 219.723 128.871 219.8 128.865 219.801Z" fill="white"/>
<path d="M94.3887 235.876C94.3826 235.876 94.3778 235.795 94.3744 235.64C94.3731 235.464 94.371 235.235 94.369 234.946C94.3744 234.337 94.354 233.437 94.4098 232.28C94.4738 229.966 94.7058 226.619 95.1589 222.506C95.5916 218.391 96.2617 213.51 96.7359 208.067C96.9639 205.347 97.1407 202.483 97.1503 199.514C97.1598 196.544 96.9346 193.476 96.5624 190.348C95.8127 184.09 94.5527 178.209 93.375 172.878C92.1735 167.55 91.0292 162.764 90.1569 158.723C89.28 154.683 88.6602 151.392 88.3023 149.106C88.1098 147.966 88.0091 147.072 87.9227 146.469C87.8866 146.183 87.8587 145.955 87.837 145.781C87.82 145.626 87.8138 145.546 87.8199 145.545C87.8261 145.545 87.8438 145.623 87.873 145.776C87.9036 145.948 87.9431 146.174 87.9934 146.458C88.1023 147.057 88.2248 147.946 88.4384 149.082C88.8378 151.358 89.4936 154.636 90.4012 158.665C91.3401 162.696 92.4552 167.486 93.6934 172.802C94.8895 178.133 96.1617 184.021 96.9149 190.303C97.2884 193.44 97.5122 196.528 97.4979 199.514C97.4836 202.498 97.2993 205.37 97.0611 208.097C96.5679 213.55 95.8719 218.427 95.4079 222.535C94.9235 226.64 94.6541 229.976 94.5479 232.286C94.471 233.44 94.469 234.338 94.4404 234.946C94.4282 235.235 94.4187 235.464 94.4112 235.639C94.4017 235.795 94.3942 235.876 94.3887 235.876Z" fill="white"/>
<path d="M101.667 222.751C101.642 222.751 101.611 222.37 101.575 221.681C101.544 220.992 101.48 219.996 101.383 218.768C101.193 216.311 100.79 212.928 100.126 209.229C99.4576 205.529 98.6922 202.211 98.1234 199.813C97.8506 198.663 97.6234 197.708 97.4492 196.973C97.2927 196.301 97.2172 195.926 97.241 195.92C97.2648 195.913 97.3852 196.276 97.5825 196.936C97.7812 197.597 98.0506 198.557 98.3663 199.749C98.9977 202.133 99.8039 205.45 100.474 209.162C101.141 212.875 101.507 216.278 101.633 218.749C101.698 219.984 101.724 220.985 101.712 221.676C101.706 222.37 101.691 222.751 101.667 222.751Z" fill="white"/>
<path d="M74.7489 220.309C74.738 220.303 74.8169 220.107 74.9768 219.739C75.153 219.344 75.3918 218.81 75.6919 218.136C76.0137 217.447 76.3858 216.592 76.8043 215.594C77.2315 214.6 77.718 213.469 78.2126 212.199C79.2508 209.681 80.3564 206.627 81.5442 203.224C82.6934 199.806 83.8799 196.023 85.0059 192.014C86.1155 187.998 87.0592 184.142 87.8559 180.619C88.6172 177.089 89.2703 173.901 89.7248 171.206C89.9731 169.862 90.165 168.641 90.3337 167.568C90.5106 166.497 90.6528 165.573 90.7555 164.815C90.8644 164.083 90.9514 163.503 91.0154 163.073C91.0787 162.675 91.1181 162.467 91.1297 162.468C91.1419 162.469 91.1263 162.681 91.0862 163.082C91.0385 163.514 90.9739 164.098 90.8923 164.833C90.8106 165.594 90.6881 166.523 90.5296 167.598C90.3793 168.675 90.2044 169.901 89.9717 171.249C89.5479 173.953 88.9199 177.152 88.1743 180.692C87.3946 184.224 86.4584 188.09 85.3467 192.112C84.2187 196.128 83.0206 199.917 81.8524 203.335C80.6455 206.738 79.5134 209.787 78.4439 212.297C77.9336 213.563 77.4302 214.689 76.9852 215.677C76.5491 216.668 76.1586 217.515 75.8171 218.197C75.4912 218.857 75.2326 219.382 75.0415 219.77C74.8605 220.129 74.7605 220.314 74.7489 220.309Z" fill="white"/>
<path d="M53.9736 239.978C53.9566 239.996 53.6838 239.719 53.2021 239.2C53.0844 239.068 52.9422 238.931 52.8088 238.761C52.6796 238.583 52.5421 238.393 52.3958 238.192C52.2468 237.985 52.089 237.766 51.9237 237.535C51.772 237.292 51.6277 237.025 51.4678 236.749C50.8072 235.657 50.2378 234.233 49.7323 232.621C49.2513 230.996 48.9322 229.153 48.7716 227.205C48.4777 223.295 49.0138 219.75 49.6683 217.287C49.8105 216.664 50.0051 216.119 50.1609 215.637C50.3092 215.153 50.4643 214.746 50.6093 214.42C50.8828 213.762 51.044 213.405 51.0664 213.415C51.0889 213.425 50.9705 213.801 50.7378 214.47C50.614 214.802 50.4786 215.213 50.3494 215.7C50.2126 216.185 50.0364 216.729 49.9112 217.351C49.3241 219.808 48.8342 223.316 49.1247 227.177C49.2839 229.1 49.588 230.92 50.0452 232.526C50.5263 234.12 51.0617 235.531 51.6856 236.623C52.8823 238.84 54.045 239.915 53.9736 239.978Z" fill="white"/>
<path d="M66.2309 241.433C66.1609 241.494 65.3751 240.611 64.7573 239.293C64.1327 237.977 63.9456 236.796 64.0361 236.778C64.1368 236.752 64.4702 237.86 65.0764 239.134C65.6737 240.412 66.3133 241.368 66.2309 241.433Z" fill="white"/>
<path d="M78.4275 252.396C78.4146 252.418 78.2418 252.328 77.9363 252.146C77.6274 251.971 77.209 251.667 76.7246 251.251C76.2361 250.839 75.7075 250.283 75.1795 249.615C74.6659 248.937 74.1611 248.141 73.7392 247.246C73.3283 246.346 73.0432 245.442 72.8534 244.605C72.6806 243.764 72.5928 242.992 72.5888 242.343C72.5792 241.695 72.6126 241.17 72.6745 240.814C72.7289 240.456 72.7704 240.261 72.7949 240.265C72.8602 240.272 72.7568 241.064 72.8391 242.332C72.8745 242.965 72.9861 243.714 73.1711 244.529C73.3732 245.339 73.659 246.214 74.059 247.09C74.4692 247.959 74.9509 248.738 75.4374 249.41C75.9374 250.071 76.4334 250.631 76.8906 251.059C77.7989 251.923 78.4629 252.339 78.4275 252.396Z" fill="white"/>
<path d="M97.2611 257.219C97.2455 257.311 95.9827 256.831 95.0874 255.48C94.1764 254.141 94.1893 252.759 94.2785 252.776C94.3853 252.757 94.5275 254.029 95.3793 255.274C96.2086 256.533 97.3162 257.123 97.2611 257.219Z" fill="white"/>
<path d="M118.383 245.352C118.363 245.386 117.922 245.171 117.33 244.642C116.738 244.118 116.027 243.247 115.524 242.124C115.026 240.999 114.85 239.876 114.852 239.075C114.852 238.269 114.981 237.786 115.019 237.793C115.078 237.8 115.038 238.288 115.102 239.063C115.163 239.836 115.37 240.897 115.846 241.974C116.327 243.047 116.973 243.902 117.502 244.456C118.031 245.013 118.417 245.303 118.383 245.352Z" fill="white"/>
<path d="M127.004 245.892C126.988 245.911 126.841 245.805 126.588 245.593C126.329 245.388 125.99 245.045 125.611 244.589C125.226 244.135 124.83 243.54 124.457 242.841C124.098 242.134 123.772 241.32 123.542 240.429C123.325 239.534 123.229 238.659 123.211 237.862C123.21 237.065 123.278 236.348 123.402 235.76C123.521 235.172 123.657 234.704 123.787 234.397C123.91 234.086 123.989 233.921 124.011 233.93C124.073 233.952 123.818 234.643 123.649 235.804C123.558 236.383 123.519 237.082 123.537 237.855C123.572 238.627 123.674 239.473 123.885 240.339C124.107 241.202 124.414 241.994 124.746 242.687C125.092 243.373 125.455 243.966 125.806 244.429C126.5 245.361 127.048 245.842 127.004 245.892Z" fill="white"/>
<path opacity="0.3" d="M61.9025 196.584C64.6524 197.513 67.6358 197.5 70.3987 198.39C73.1616 199.279 75.8843 201.546 75.8843 204.517C75.8843 206.255 74.9795 208.151 75.8789 209.625C77.8975 206.747 79.0452 203.236 79.1255 199.691C81.4823 200.729 83.8397 201.768 86.1964 202.806C87.6489 203.445 89.1627 204.132 90.1451 205.403C93.3877 209.599 88.73 216.516 91.6773 220.936C92.8577 217.315 93.5312 213.521 93.6707 209.706C97.6161 212.646 94.2395 220.596 98.3345 223.311C98.2433 219.836 98.0304 216.364 97.6963 212.905C102.342 217.537 107.286 221.854 112.484 225.819C113.818 226.837 115.255 227.866 116.909 228.031C120.831 228.423 123.444 224.098 125.059 220.409C125.811 221.436 126.563 222.462 127.315 223.489C129.006 221.581 127.714 218.505 128.294 215.996C128.78 213.888 130.543 212.385 132.202 211.044C138.125 206.253 144.986 201.185 152.452 202.29C150.839 201.652 150.654 199.202 151.646 197.75C152.639 196.299 154.33 195.573 155.884 194.798C163.619 190.933 169.778 184.17 173.883 176.411C177.987 168.652 179.019 156.535 175.093 150.11L175.09 150.109C175.087 150.109 175.001 150.103 174.852 150.095V150.047C174.561 149.972 174.27 149.899 173.981 149.83C172.661 149.515 171.322 149.217 170.094 148.627C169.096 148.147 168.187 147.483 167.175 147.032C162.462 144.931 157.229 147.859 152.505 149.936C142.663 154.262 131.304 156.473 120.928 153.763C111.925 151.412 105.486 152.351 94.2919 147.632C94.2919 147.632 88.532 144.374 87.8211 145.546C87.5197 146.043 88.049 148.785 87.6551 151.651C86.3658 161.019 77.9655 170.708 71.7927 177.735C67.7161 182.375 63.3285 186.804 59.5063 191.646C59.4559 193.905 59.7104 195.843 61.9025 196.584Z" fill="black"/>
<path d="M24.8722 192.067C21.7004 186.663 16.2535 184.22 10.1161 183.869C8.40091 183.771 6.61772 183.93 5.10394 184.762C3.59016 185.594 2.40159 187.213 2.43629 188.975C2.47235 190.822 3.82896 192.428 5.44275 193.245C10.3379 195.722 16.4372 192.078 21.5861 193.937C22.3699 194.22 23.1897 194.633 23.9918 194.41C24.7926 194.186 25.1647 193.304 24.8722 192.067Z" fill="#FFEA7C"/>
<path d="M10.7531 192.848C10.7599 192.887 10.1428 193.057 9.11206 193.047C8.10378 193.032 6.59613 192.772 5.35041 191.705C4.73673 191.179 4.27273 190.524 4.02645 189.852C3.77676 189.182 3.73186 188.524 3.79037 187.992C3.85296 187.457 4.0108 187.046 4.15367 186.789C4.29654 186.529 4.41288 186.413 4.42853 186.424C4.48908 186.453 4.09516 186.999 4.04005 188.013C4.01624 188.513 4.08428 189.119 4.32988 189.729C4.57141 190.338 5.00547 190.935 5.57696 191.425C6.7356 192.42 8.14324 192.71 9.12431 192.79C10.121 192.866 10.7476 192.788 10.7531 192.848Z" fill="white"/>
<path d="M14.0616 192.59C14.0588 192.69 13.7452 192.763 13.3615 192.752C12.9778 192.742 12.6682 192.652 12.6709 192.552C12.6736 192.451 12.9866 192.379 13.371 192.389C13.7554 192.4 14.0643 192.489 14.0616 192.59Z" fill="white"/>
<path d="M7.53631 171.461C6.95938 171.083 6.21576 170.929 5.46533 170.999C4.63054 170.909 3.74745 171.316 3.23582 172.015C2.61398 172.864 2.51329 174.046 2.84666 175.052C3.18003 176.058 3.90529 176.894 4.76253 177.49C5.74291 178.173 7.05463 178.56 8.10917 178.007C9.10724 177.484 9.59097 176.244 9.55355 175.095C9.50729 173.646 8.72761 172.242 7.53631 171.461Z" fill="#FFEA7C"/>
<path d="M5.22679 176.929C5.20842 176.969 4.91042 176.885 4.5097 176.588C4.11169 176.296 3.62593 175.762 3.3429 175.032C3.05919 174.302 3.05443 173.571 3.14764 173.078C3.23949 172.58 3.39937 172.308 3.43951 172.324C3.5436 172.34 3.14491 173.549 3.67219 174.897C4.19197 176.248 5.29142 176.845 5.22679 176.929Z" fill="white"/>
<path d="M186.836 128.519C191.23 121.033 198.774 117.65 207.275 117.163C209.651 117.027 212.121 117.247 214.218 118.4C216.315 119.553 217.961 121.795 217.913 124.236C217.863 126.794 215.985 129.019 213.749 130.151C206.969 133.583 198.52 128.534 191.389 131.109C190.303 131.501 189.167 132.074 188.057 131.764C186.946 131.454 186.431 130.232 186.836 128.519Z" fill="#FFEA7C"/>
<path d="M206.393 129.6C206.398 129.537 207.264 129.662 208.651 129.57C210.014 129.473 211.983 129.076 213.605 127.685C214.405 127 215.012 126.16 215.348 125.305C215.688 124.45 215.778 123.6 215.739 122.901C215.648 121.482 215.083 120.734 215.152 120.705C215.167 120.694 215.32 120.86 215.509 121.221C215.699 121.58 215.908 122.146 215.988 122.88C216.063 123.611 215.995 124.513 215.65 125.429C215.31 126.347 214.673 127.243 213.831 127.964C212.122 129.429 210.054 129.794 208.662 129.827C207.954 129.843 207.383 129.792 206.992 129.736C206.602 129.679 206.39 129.623 206.393 129.6Z" fill="white"/>
<path d="M201.81 129.242C201.808 129.141 202.237 129.048 202.769 129.034C203.301 129.019 203.734 129.089 203.737 129.189C203.739 129.29 203.31 129.383 202.778 129.397C202.247 129.411 201.813 129.341 201.81 129.242Z" fill="white"/>
<path d="M210.436 170.027C211.196 170.606 211.758 171.518 212.039 172.55C212.563 173.615 212.486 174.988 211.857 176.013C211.091 177.257 209.65 177.974 208.218 178.027C206.784 178.08 205.372 177.528 204.197 176.684C202.854 175.719 201.719 174.167 201.895 172.493C202.063 170.909 203.388 169.655 204.856 169.138C206.708 168.486 208.863 168.829 210.436 170.027Z" fill="#FFEA7C"/>
<path d="M204.677 175.79C204.714 175.746 205.032 176.011 205.607 176.307C206.177 176.604 207.032 176.909 208.005 176.924C208.977 176.939 209.841 176.662 210.42 176.382C211.004 176.104 211.33 175.849 211.365 175.895C211.393 175.926 211.119 176.257 210.535 176.61C209.96 176.963 209.046 177.304 207.999 177.288C206.953 177.272 206.049 176.902 205.485 176.532C204.912 176.159 204.648 175.82 204.677 175.79Z" fill="white"/>
<path d="M142.165 155.65C132.526 154.549 123.926 149.228 115.018 145.291C106.111 141.355 94.0214 138.07 85.3428 142.514C80.5117 149.525 77.578 155.235 69.9554 163.553C68.6028 165.305 66.5992 165.535 65.0133 167.086L65.8073 168.618C67.4843 169.261 68.994 170.533 69.6315 172.25C70.4826 174.541 69.5846 177.281 67.7891 178.899C65.9937 180.518 63.4676 181.105 61.0884 180.873C59.1446 180.684 57.2206 179.964 55.7497 178.647C55.1911 178.146 54.7053 177.555 54.3169 176.905C49.3326 179.757 42.757 180.657 37.3129 182.034L37.8299 183.449C55.5354 194.283 79.0966 193.221 94.8657 206.845C102.563 213.495 108.393 223.575 118.227 225.764C127.435 212.949 138.723 201.715 151.485 192.661C156.366 189.199 161.534 185.987 165.426 181.392C173.518 171.837 174.68 158.206 175.368 145.566L174.851 144.151C164.936 150.336 153.68 156.965 142.165 155.65ZM125.158 205.499C123.057 207.394 120.1 208.08 117.315 207.809C115.039 207.588 112.787 206.745 111.066 205.203C109.344 203.66 108.201 201.384 108.223 199.039C108.243 196.829 109.326 194.655 111.059 193.343C112.036 192.604 113.748 192.011 115.427 191.748C117.065 191.491 118.741 191.746 120.275 192.389L122.838 193.465C124.802 194.217 126.568 195.706 127.314 197.716C128.311 200.398 127.26 203.604 125.158 205.499ZM135.507 179.349C134.376 180.369 132.783 180.739 131.283 180.593C130.057 180.474 128.844 180.02 127.917 179.19C126.99 178.359 126.375 177.133 126.386 175.87C126.397 174.679 126.98 173.508 127.914 172.802C128.44 172.403 129.362 172.084 130.266 171.942C131.148 171.804 132.051 171.941 132.877 172.288L134.257 172.868C135.315 173.272 136.266 174.075 136.668 175.157C137.205 176.602 136.639 178.328 135.507 179.349Z" fill="#FFCF54"/>
<g opacity="0.3">
<path d="M142.165 155.65C132.526 154.549 123.926 149.228 115.018 145.291C106.111 141.355 94.0214 138.07 85.3428 142.514C80.5117 149.525 77.578 155.235 69.9554 163.553C68.6028 165.305 66.5992 165.535 65.0133 167.086L65.8073 168.618C67.4843 169.261 68.994 170.533 69.6315 172.25C70.4826 174.541 69.5846 177.281 67.7891 178.899C65.9937 180.518 63.4676 181.105 61.0884 180.873C59.1446 180.684 57.2206 179.964 55.7497 178.647C55.1911 178.146 54.7053 177.555 54.3169 176.905C49.3911 179.724 42.6917 180.655 37.3129 182.034L37.8299 183.449C55.5354 194.283 79.0966 193.221 94.8657 206.845C102.563 213.495 108.393 223.575 118.227 225.764C127.435 212.949 138.723 201.715 151.485 192.661C156.366 189.199 161.534 185.987 165.426 181.392C173.518 171.837 174.68 158.206 175.368 145.566L174.851 144.151C164.919 150.355 153.706 156.968 142.165 155.65ZM125.158 205.499C123.057 207.394 120.1 208.08 117.315 207.809C115.039 207.588 112.787 206.745 111.066 205.203C109.344 203.66 108.201 201.384 108.223 199.039C108.243 196.829 109.326 194.655 111.059 193.343C112.036 192.604 113.748 192.011 115.427 191.748C117.065 191.491 118.741 191.746 120.275 192.389L122.838 193.465C124.802 194.217 126.568 195.706 127.314 197.716C128.311 200.398 127.26 203.604 125.158 205.499ZM135.507 179.349C134.376 180.369 132.783 180.739 131.283 180.593C130.057 180.474 128.844 180.02 127.917 179.19C126.99 178.359 126.375 177.133 126.386 175.87C126.397 174.679 126.98 173.508 127.914 172.802C128.44 172.403 129.362 172.084 130.266 171.942C131.148 171.804 132.051 171.941 132.877 172.288L134.257 172.868C135.315 173.272 136.266 174.075 136.668 175.157C137.205 176.602 136.639 178.328 135.507 179.349Z" fill="black"/>
</g>
<path d="M141.648 154.235C132.009 153.134 123.409 147.813 114.501 143.877C105.594 139.94 93.5044 136.655 84.8259 141.099C79.9947 148.11 77.0611 153.82 69.4384 162.139C68.0859 163.89 66.5993 165.536 65.0134 167.086L65.2903 167.202C66.9674 167.845 68.4771 169.117 69.1146 170.834C69.9657 173.126 69.0676 175.865 67.2722 177.484C65.4768 179.102 62.9506 179.69 60.5714 179.458C58.6277 179.269 56.7036 178.549 55.2327 177.231C54.6742 176.731 54.1884 176.139 53.7999 175.489C48.6109 178.459 42.9851 180.666 37.313 182.035C55.0184 192.868 78.5796 191.806 94.3488 205.43C102.046 212.081 107.876 222.161 117.71 224.349C126.918 211.535 138.206 200.3 150.968 191.246C155.849 187.784 161.017 184.573 164.909 179.977C173.001 170.422 174.163 156.791 174.851 144.151C164.83 150.467 153.336 155.57 141.648 154.235ZM124.641 204.084C122.54 205.979 119.582 206.665 116.798 206.394C114.522 206.173 112.271 205.33 110.549 203.788C108.827 202.246 107.684 199.969 107.706 197.624C107.726 195.414 108.809 193.24 110.542 191.928C111.519 191.189 113.231 190.596 114.91 190.333C116.548 190.076 118.224 190.331 119.758 190.975L122.321 192.051C124.285 192.803 126.051 194.292 126.797 196.301C127.794 198.983 126.743 202.189 124.641 204.084ZM134.99 177.934C133.858 178.954 132.265 179.324 130.766 179.178C129.541 179.058 128.327 178.605 127.4 177.774C126.473 176.944 125.858 175.717 125.869 174.454C125.88 173.264 126.463 172.093 127.397 171.387C127.923 170.988 128.845 170.669 129.749 170.527C130.631 170.389 131.534 170.526 132.36 170.873L133.74 171.452C134.798 171.857 135.749 172.659 136.151 173.742C136.688 175.186 136.122 176.913 134.99 177.934Z" fill="#FFCF54"/>
<path d="M99.3864 204.893C99.3769 204.901 99.2354 204.761 98.9755 204.489C98.7074 204.225 98.3543 203.794 97.8332 203.306C96.8202 202.303 95.2581 200.946 93.1429 199.547C91.027 198.153 88.3546 196.729 85.2494 195.493C82.1539 194.23 78.648 193.12 74.9456 192.036C67.5481 189.871 60.8528 187.911 55.9672 186.481C53.5683 185.761 51.6164 185.175 50.2264 184.758C49.5753 184.555 49.0569 184.393 48.6704 184.272C48.316 184.157 48.1309 184.092 48.1343 184.079C48.1377 184.066 48.3289 184.11 48.6895 184.202C49.0807 184.307 49.6046 184.446 50.2631 184.622C51.6599 185.013 53.6227 185.561 56.0345 186.234C60.9276 187.638 67.6332 189.561 75.0422 191.687C78.748 192.771 82.2641 193.895 85.3692 195.182C88.4838 196.441 91.1644 197.899 93.2783 199.331C95.3921 200.768 96.9406 202.165 97.9284 203.205C98.4367 203.71 98.7755 204.159 99.0272 204.439C99.2721 204.728 99.396 204.884 99.3864 204.893Z" fill="white"/>
<path d="M105.204 211.818C105.121 211.879 104.595 211.246 103.85 210.582C103.109 209.912 102.429 209.462 102.476 209.369C102.517 209.282 103.305 209.606 104.083 210.308C104.865 211.006 105.282 211.766 105.204 211.818Z" fill="white"/>
<path d="M106.538 193.26C106.646 193.305 105.563 195.286 105.358 198.004C105.117 200.72 105.861 202.859 105.746 202.885C105.708 202.9 105.471 202.39 105.259 201.507C105.045 200.626 104.892 199.363 105.005 197.973C105.121 196.585 105.478 195.366 105.832 194.534C106.185 193.7 106.503 193.239 106.538 193.26Z" fill="white"/>
<path d="M123.101 174.388C123.194 174.439 122.763 175.305 122.677 176.465C122.574 177.624 122.857 178.551 122.757 178.586C122.678 178.632 122.215 177.69 122.324 176.434C122.421 175.178 123.032 174.328 123.101 174.388Z" fill="white"/>
<path d="M161.198 132.75C161.823 129.382 158.657 116.137 154.766 114.196C145.657 109.65 128.078 119.292 110.961 121.705C90.8564 124.54 72.7265 132.525 64.0105 137.9C60.2475 140.22 48.7353 140.79 46.4031 143.479C46.4031 143.479 46.4235 150.353 48.8632 157.163C48.8632 157.163 50.9573 167.523 61.6341 170.142C76.8868 173.884 95.3556 172.36 108.342 169.303C123.27 165.789 143.645 156.558 151.066 150.408C158.488 144.26 160.333 137.409 161.198 132.75Z" fill="#743C35"/>
<path d="M157.405 118.787C153.395 106.309 132.31 104.717 107.885 108.16C87.7798 110.995 69.6499 118.98 60.9339 124.354C52.218 129.729 47.2807 136.067 46.4037 143.48C46.4037 143.48 47.8807 153.978 58.5575 156.597C73.8102 160.338 92.8519 159.412 105.838 156.355C120.766 152.841 140.568 143.013 147.989 136.863C155.411 130.714 158.49 122.162 157.405 118.787Z" fill="#A85F4C"/>
<path d="M106.841 112.351C107.287 112.559 103.935 121.109 99.3546 131.446C94.7731 141.786 90.6999 149.997 90.2542 149.789C89.8093 149.581 93.1607 141.034 97.7415 130.693C102.322 120.356 106.396 112.144 106.841 112.351Z" fill="#774037"/>
<path d="M125.002 109.372C125.446 109.583 122.199 117.745 117.751 127.6C113.302 137.459 109.336 145.277 108.893 145.066C108.449 144.855 111.695 136.694 116.144 126.836C120.592 116.981 124.558 109.161 125.002 109.372Z" fill="#774037"/>
<path d="M141.708 111.34C142.155 111.519 140.091 118.005 136.616 125.605C133.151 133.213 129.618 138.991 129.199 138.753C128.761 138.508 131.574 132.384 135.012 124.834C138.461 117.291 141.244 111.152 141.708 111.34Z" fill="#774037"/>
<path d="M84.8938 118.2C85.3436 118.364 83.044 126.137 79.2041 135.331C75.3758 144.534 71.4855 151.609 71.0596 151.387C70.6113 151.158 73.7708 143.764 77.5753 134.616C81.3928 125.478 84.423 118.025 84.8938 118.2Z" fill="#774037"/>
<path d="M67.4551 126.701C67.8919 126.948 66.0774 131.146 63.8296 136.286C61.5701 141.423 59.7121 145.599 59.242 145.427C58.7889 145.265 59.921 140.754 62.2137 135.539C64.497 130.322 67.0367 126.46 67.4551 126.701Z" fill="#774037"/>
<path d="M76.5218 156.354C76.5211 156.367 76.3952 156.37 76.1571 156.366C75.8788 156.356 75.5353 156.343 75.1162 156.328C74.2133 156.286 72.9064 156.213 71.294 156.066C69.6829 155.919 67.7629 155.693 65.6607 155.249C63.5611 154.809 61.2772 154.121 59.0327 153.022C56.7937 151.901 54.8798 150.405 53.4042 148.793C51.9373 147.171 50.8855 145.458 50.2888 143.899C49.6833 142.344 49.4479 140.993 49.4091 140.062C49.3574 139.598 49.4044 139.234 49.3996 138.99C49.4078 138.745 49.418 138.617 49.4302 138.617C49.467 138.617 49.4568 139.133 49.5459 140.049C49.6255 140.966 49.8963 142.285 50.5195 143.799C51.1345 145.316 52.1877 146.981 53.6409 148.562C55.103 150.132 56.9889 151.593 59.1865 152.693C61.3969 153.775 63.6495 154.465 65.728 154.92C67.8085 155.377 69.7156 155.629 71.3185 155.809C72.9227 155.987 74.2249 156.1 75.125 156.185C75.5421 156.228 75.8843 156.262 76.1612 156.29C76.3986 156.321 76.5224 156.341 76.5218 156.354Z" fill="white"/>
<path d="M87.1909 154.497C87.2107 154.595 85.8874 154.956 84.2362 155.301C82.5843 155.648 81.2297 155.848 81.2107 155.75C81.1909 155.651 82.5135 155.291 84.1654 154.945C85.8166 154.6 87.1712 154.399 87.1909 154.497Z" fill="white"/>
<path d="M61.2186 166.88C61.2111 166.904 60.9907 166.846 60.5961 166.72C60.1994 166.6 59.6422 166.374 58.9734 166.051C57.6359 165.408 55.8846 164.263 54.2926 162.606C52.706 160.941 51.6229 159.123 51.0215 157.739C50.7181 157.047 50.5085 156.471 50.3997 156.061C50.284 155.654 50.2316 155.427 50.2547 155.42C50.316 155.399 50.5922 156.29 51.2474 157.627C51.8978 158.963 52.9904 160.719 54.545 162.351C56.1051 163.976 57.7957 165.129 59.0857 165.821C60.3763 166.518 61.2397 166.817 61.2186 166.88Z" fill="white"/>
<path d="M63.9067 63.4419C63.9067 63.4419 51.1863 60.5968 42.5458 65.2475C37.0486 68.2065 34.2013 75.6515 32.94 83.433C30.8901 96.0851 38.38 115.339 70.4538 128.663C104.816 142.94 121.177 133.437 126.836 129.733C131.778 126.498 139.458 117.357 138.997 102.227C138.918 99.6376 134.495 99.8638 132.855 96.9907C123.87 81.2448 90.9282 61.922 63.9067 63.4419Z" fill="#F74545"/>
<path opacity="0.3" d="M63.9067 63.4419C63.9067 63.4419 51.1863 60.5968 42.5458 65.2475C37.0486 68.2065 34.2013 75.6515 32.94 83.433C30.8901 96.0851 38.38 115.339 70.4538 128.663C104.816 142.94 121.177 133.437 126.836 129.733C131.778 126.498 139.458 117.357 138.997 102.227C138.918 99.6376 134.495 99.8638 132.855 96.9907C123.87 81.2448 90.9282 61.922 63.9067 63.4419Z" fill="black"/>
<path d="M66.2118 56.5148C66.2118 56.5148 39.2822 58.5592 35.6981 76.3313C33.1652 88.8913 40.6851 108.412 72.7588 121.737C107.121 136.013 127.211 123.212 130.085 120.917C132.96 118.623 145.082 107.451 135.161 90.0643C126.175 74.3184 93.2333 54.9955 66.2118 56.5148Z" fill="#F74545"/>
<path opacity="0.1" d="M66.2118 56.5148C66.2118 56.5148 39.2822 58.5592 35.6981 76.3313C33.1652 88.8913 40.6851 108.412 72.7588 121.737C107.121 136.013 127.211 123.212 130.085 120.917C132.96 118.623 145.082 107.451 135.161 90.0643C126.175 74.3184 93.2333 54.9955 66.2118 56.5148Z" fill="white"/>
<g opacity="0.2">
<path d="M126.745 91.3352C124.322 88.3434 112.221 90.8479 107.656 89.9877C106.57 89.7831 105.854 88.2003 106.764 87.5579C114.093 82.3835 114.647 76.6177 110.847 73.7656C106.732 70.676 100.192 67.0307 94.4061 66.1614C91.041 65.6559 85.9908 65.0296 83.4109 67.3037C81.691 68.8195 81.4883 76.1032 81.6937 78.5057C81.0862 76.4313 79.4316 69.806 78.3382 67.9586C76.4822 64.8209 73.5071 62.1858 69.9693 61.644C66.2539 61.0757 62.5793 62.8519 59.4497 64.9856C54.1321 68.6107 49.5839 73.42 46.2257 78.9937C45.2528 80.608 44.5704 82.408 44.382 84.2959C43.6411 91.7213 50.3752 94.4632 56.05 94.1957C60.4131 93.9898 68.0459 90.7117 72.4124 90.8178C72.7696 90.8262 73.1499 90.8541 73.4349 91.0741C73.9486 91.4706 73.8949 92.3301 73.4948 92.8468C73.0955 93.3635 69.0984 95.4246 68.4997 95.6641C65.9756 96.6709 63.3889 97.7503 61.6792 100.03C60.8791 101.098 60.3654 102.392 60.3777 103.739C60.4097 107.29 63.6658 109.143 66.5553 110.523C71.2293 112.756 75.923 114.948 80.6344 117.097C86.2582 119.662 92.0588 122.205 98.2038 122.546C100.372 122.667 102.829 122.4 103.806 119.91C104.045 119.303 104.136 118.637 104.098 117.984C103.968 115.742 102.649 113.952 101.223 112.381C100.306 111.369 99.3815 109.813 98.9453 108.506C98.5092 107.199 98.4092 103.332 99.6515 102.802C100.782 102.319 102.832 102.633 104.394 104.762C106.162 107.173 107.902 110.392 109.485 112.933C110.373 114.359 111.161 115.94 112.533 116.878C114.961 118.537 118.273 117.577 120.775 116.04C124.805 113.566 128.053 109.622 129.325 104.982C130.599 100.342 129.747 95.042 126.745 91.3352Z" fill="white"/>
</g>
<path d="M71.1033 102.363C70.5768 102.213 70.0087 102.168 69.4868 102.335C68.965 102.502 68.4983 102.902 68.3302 103.436C68.1622 103.969 68.3473 104.623 68.8153 104.913C69.2753 105.198 69.8638 105.092 70.3781 104.934C70.9251 104.767 71.4571 104.55 71.9681 104.288C72.1994 104.17 72.3851 104.087 72.6239 103.88C72.926 103.605 72.9641 103.228 72.611 103.018C72.1218 102.767 71.6299 102.514 71.1033 102.363Z" fill="white"/>
<path d="M113.984 110.131C113.769 110.646 113.65 111.219 113.743 111.771C113.835 112.324 114.16 112.852 114.653 113.093C115.146 113.335 115.803 113.233 116.144 112.796C116.48 112.366 116.456 111.753 116.372 111.209C116.282 110.631 116.144 110.06 115.958 109.506C115.874 109.255 115.819 109.055 115.65 108.785C115.425 108.441 115.066 108.352 114.816 108.683C114.509 109.148 114.2 109.615 113.984 110.131Z" fill="white"/>
<path d="M74.3642 108.474C73.99 108.841 73.6743 109.294 73.5396 109.807C73.4049 110.32 73.4723 110.897 73.7873 111.287C74.103 111.678 74.6833 111.83 75.1323 111.577C75.5739 111.328 75.7868 110.788 75.9249 110.285C76.0712 109.751 76.1739 109.206 76.2325 108.658C76.259 108.41 76.2896 108.216 76.2529 107.92C76.1971 107.539 75.9351 107.331 75.6025 107.525C75.1718 107.815 74.7384 108.107 74.3642 108.474Z" fill="white"/>
<path d="M89.3861 114.267C89.4099 114.798 89.5344 115.339 89.8228 115.781C90.1106 116.222 90.5787 116.549 91.0726 116.561C91.5666 116.574 92.0605 116.225 92.1701 115.712C92.2775 115.207 92.021 114.687 91.7421 114.25C91.4462 113.785 91.1135 113.347 90.7488 112.943C90.5835 112.759 90.4617 112.608 90.2202 112.442C89.9038 112.235 89.5786 112.301 89.5031 112.686C89.433 113.209 89.3622 113.736 89.3861 114.267Z" fill="white"/>
<path d="M94.7835 112.221C95.1795 112.563 95.6516 112.837 96.1633 112.919C96.6742 113.002 97.226 112.871 97.5702 112.507C97.9145 112.143 98.0002 111.535 97.707 111.104C97.4185 110.68 96.8722 110.521 96.3701 110.434C95.8367 110.342 95.2979 110.296 94.7604 110.295C94.5168 110.295 94.3263 110.284 94.0433 110.353C93.6807 110.451 93.5065 110.741 93.7317 111.06C94.0583 111.468 94.3869 111.878 94.7835 112.221Z" fill="white"/>
<path d="M119.634 107.272C119.658 107.804 119.782 108.345 120.071 108.786C120.359 109.227 120.827 109.554 121.321 109.567C121.815 109.579 122.308 109.231 122.418 108.717C122.526 108.212 122.269 107.692 121.99 107.255C121.694 106.791 121.361 106.353 120.997 105.948C120.831 105.764 120.71 105.614 120.468 105.447C120.152 105.24 119.827 105.306 119.751 105.692C119.68 106.215 119.61 106.742 119.634 107.272Z" fill="white"/>
<path d="M123.17 103.044C123.566 103.386 124.038 103.66 124.549 103.742C125.06 103.824 125.612 103.694 125.956 103.33C126.301 102.966 126.386 102.357 126.093 101.927C125.805 101.503 125.258 101.344 124.756 101.257C124.223 101.165 123.684 101.119 123.146 101.118C122.903 101.118 122.712 101.107 122.429 101.176C122.067 101.274 121.893 101.564 122.117 101.883C122.444 102.29 122.774 102.702 123.17 103.044Z" fill="white"/>
<path d="M124.802 97.3768C125.256 97.5109 125.748 97.5584 126.203 97.4313C126.659 97.3049 127.07 96.9858 127.225 96.5515C127.38 96.1173 127.231 95.5775 126.83 95.3311C126.436 95.0888 125.924 95.1642 125.475 95.2836C124.999 95.4107 124.533 95.5775 124.086 95.7821C123.883 95.875 123.721 95.9385 123.511 96.1047C123.244 96.3246 123.204 96.6325 123.507 96.8113C123.926 97.027 124.348 97.2435 124.802 97.3768Z" fill="white"/>
<path d="M109.183 78.9877C109.601 78.8802 110.011 78.6861 110.314 78.3726C110.617 78.0584 110.8 77.613 110.728 77.1975C110.657 76.7821 110.298 76.426 109.872 76.419C109.453 76.4128 109.082 76.713 108.78 77.0188C108.46 77.3435 108.167 77.694 107.906 78.0661C107.787 78.2344 107.687 78.3614 107.595 78.5912C107.482 78.89 107.589 79.1518 107.907 79.1511C108.334 79.1232 108.764 79.0953 109.183 78.9877Z" fill="white"/>
<path d="M70.0697 66.6092C70.0956 66.1673 70.0391 65.7078 69.8384 65.3169C69.6377 64.9259 69.2785 64.6131 68.871 64.5579C68.4634 64.5028 68.0246 64.7464 67.8899 65.1619C67.7579 65.5703 67.9253 66.0234 68.1185 66.4102C68.324 66.8215 68.5614 67.2139 68.8281 67.5818C68.9485 67.7487 69.037 67.8849 69.2227 68.044C69.467 68.2444 69.7418 68.2186 69.8371 67.9065C69.9398 67.4806 70.0439 67.0512 70.0697 66.6092Z" fill="white"/>
<path d="M54.8969 73.8381C54.6956 73.4471 54.4146 73.0841 54.0458 72.8565C53.6764 72.6289 53.211 72.5528 52.8348 72.7224C52.4586 72.8928 52.2068 73.3347 52.3021 73.7613C52.396 74.181 52.7681 74.4791 53.1287 74.7067C53.5117 74.949 53.9138 75.1578 54.3275 75.3302C54.5153 75.4084 54.6588 75.4782 54.8983 75.5152C55.2079 75.5564 55.4303 75.3882 55.3541 75.0705C55.2269 74.6515 55.0983 74.2291 54.8969 73.8381Z" fill="white"/>
<path d="M62.2235 68.3016C62.0772 67.824 61.8357 67.3618 61.4703 67.0316C61.1043 66.7013 60.6015 66.5191 60.1484 66.6301C59.696 66.7411 59.3279 67.1803 59.349 67.6753C59.3701 68.162 59.7259 68.5718 60.0824 68.9007C60.4614 69.2498 60.8669 69.5668 61.2941 69.8453C61.4873 69.9717 61.6343 70.0792 61.8928 70.1707C62.2296 70.281 62.5106 70.1407 62.4881 69.7706C62.4296 69.2763 62.3704 68.7792 62.2235 68.3016Z" fill="white"/>
<path d="M49.3037 82.1716C48.8323 82.0417 48.3233 82.0019 47.8546 82.1416C47.3865 82.2812 46.9667 82.6184 46.8143 83.0702C46.6626 83.5219 46.8259 84.0763 47.2443 84.3234C47.6552 84.5664 48.1832 84.4792 48.6452 84.3465C49.1357 84.2062 49.614 84.0246 50.0719 83.8047C50.2794 83.7048 50.4467 83.6357 50.661 83.4612C50.9325 83.2294 50.9679 82.9103 50.6522 82.7309C50.2154 82.5172 49.7745 82.3014 49.3037 82.1716Z" fill="white"/>
<path d="M53.4218 88.7788C52.9456 88.8891 52.4768 89.0978 52.1258 89.4449C51.7747 89.7919 51.5563 90.2911 51.6271 90.7638C51.6971 91.2358 52.0938 91.6484 52.5761 91.6672C53.0504 91.6854 53.4776 91.3558 53.8266 91.0179C54.1974 90.6597 54.5376 90.2701 54.8437 89.8568C54.9825 89.6697 55.0989 89.5286 55.2091 89.271C55.3445 88.9359 55.2302 88.637 54.8696 88.6287C54.3852 88.6482 53.8974 88.6685 53.4218 88.7788Z" fill="white"/>
<path d="M104.88 75.1247C105.294 74.8398 105.666 74.4656 105.877 74.0027C106.087 73.5398 106.117 72.9819 105.881 72.5588C105.645 72.1357 105.12 71.8913 104.654 72.0554C104.195 72.216 103.906 72.6914 103.695 73.1439C103.47 73.6249 103.284 74.1235 103.141 74.6332C103.075 74.8636 103.015 75.0423 103.002 75.3286C102.993 75.6986 103.208 75.9409 103.554 75.8124C104.01 75.612 104.467 75.4096 104.88 75.1247Z" fill="white"/>
<path d="M91.78 70.2599C91.9467 69.7782 92.0283 69.2496 91.9283 68.7497C91.8283 68.2498 91.5276 67.7834 91.0928 67.5879C90.6574 67.3924 90.0941 67.5181 89.8151 67.9349C89.541 68.3448 89.5845 68.9033 89.6777 69.3956C89.7764 69.9192 89.9179 70.4331 90.0982 70.9302C90.1798 71.155 90.2349 71.3352 90.3907 71.5733C90.5989 71.8756 90.9119 71.9384 91.116 71.6235C91.3629 71.1837 91.6126 70.7417 91.78 70.2599Z" fill="white"/>
<path d="M99.4463 72.0785C99.7157 71.6484 99.9117 71.1527 99.9253 70.6423C99.9389 70.1319 99.7491 69.6083 99.3687 69.3157C98.9884 69.0239 98.4115 69.0148 98.0475 69.3555C97.6896 69.6907 97.6087 70.2443 97.5903 70.7463C97.5706 71.2798 97.5937 71.8125 97.6597 72.3389C97.6896 72.577 97.7033 72.7656 97.8026 73.0337C97.938 73.3772 98.2292 73.5112 98.4972 73.2515C98.836 72.8808 99.1769 72.5086 99.4463 72.0785Z" fill="white"/>
<path d="M81.8192 110.882C81.445 111.249 81.1293 111.702 80.9946 112.215C80.8599 112.727 80.9272 113.305 81.2422 113.695C81.5579 114.085 82.1382 114.239 82.5873 113.985C83.0288 113.736 83.2418 113.196 83.3799 112.694C83.5262 112.16 83.6289 111.614 83.6874 111.066C83.7139 110.818 83.7446 110.624 83.7078 110.328C83.652 109.948 83.3901 109.739 83.0574 109.934C82.6267 110.223 82.194 110.514 81.8192 110.882Z" fill="white"/>
<g opacity="0.3">
<path d="M121.286 96.5937C120.868 96.082 120.277 95.7559 119.688 95.4717C114.695 93.0629 108.977 92.8444 103.729 91.0954C103.381 90.9795 103.014 90.8412 102.792 90.5424C102.364 89.9671 102.679 89.1467 103.004 88.5043C103.912 86.7093 104.82 84.9135 105.727 83.1184C106.157 82.2701 106.598 81.3498 106.469 80.4038C106.314 79.2699 105.389 78.4285 104.483 77.7604C100.589 74.8873 95.8664 73.213 91.0747 73.007C89.1997 72.9267 87.145 73.1389 85.7911 74.4718C84.4583 75.7837 84.1488 77.8784 84.3916 79.7572C84.608 81.4294 85.1101 83.397 83.959 84.6007C82.9731 85.6312 80.7953 86.0872 80.515 83.6616C79.3305 79.9045 77.6548 76.3116 75.5464 73.0084C74.7722 71.7956 73.9013 70.5849 72.6719 69.8706C71.1765 69.0014 69.3498 68.9853 67.6496 69.2402C60.2263 70.3538 53.814 76.6425 52.3928 84.202C52.2785 84.8094 52.1975 85.4588 52.4288 86.0299C52.7214 86.7504 53.4425 87.1812 54.1481 87.4731C56.7776 88.5581 59.7317 88.4024 62.5334 87.9604C65.3344 87.5185 68.1184 86.807 70.9527 86.8342C73.7864 86.8615 76.7738 87.7503 78.6066 89.9692C78.8264 90.2352 79.0312 90.5263 79.1189 90.8622C79.4884 92.2746 77.8093 93.2326 76.5248 93.8645C75.4063 94.4146 74.364 95.1275 73.4387 95.9744C72.8441 96.5183 72.259 97.2214 72.3107 98.0369C72.3433 98.5501 72.6284 99.0095 72.9495 99.404C74.2891 101.052 76.1145 103.246 77.9603 104.254C82.1826 106.559 85.4278 106.854 90.7107 107.45C91.3673 107.524 93.5879 107.626 94.2288 107.463C95.5868 107.116 95.6616 104.448 96.01 103.057C96.3583 101.666 96.6039 100.12 97.6524 99.1694C98.9273 98.0139 100.966 98.2241 102.411 99.145C103.856 100.065 104.863 101.538 105.902 102.92C106.941 104.302 108.124 105.684 109.721 106.283C112.215 107.218 114.96 106.004 117.252 104.628C119.283 103.408 121.393 101.8 121.86 99.4326C122.054 98.4524 121.912 97.3604 121.286 96.5937Z" fill="white"/>
</g>
<path d="M40.8639 93.5451C40.8442 93.5597 40.636 93.2861 40.2761 92.7764C40.0911 92.5243 39.8761 92.208 39.6618 91.8177C39.4434 91.4302 39.1685 91.0022 38.9419 90.4876C38.695 89.9828 38.4317 89.4264 38.2092 88.8022C37.9514 88.1912 37.7609 87.5084 37.5431 86.7955C37.1628 85.3544 36.8703 83.7311 36.771 82.0072C36.692 80.282 36.8152 78.6363 37.0451 77.161C37.188 76.4279 37.3071 75.7283 37.5003 75.0929C37.6575 74.4478 37.8622 73.8662 38.0555 73.3376C38.2276 72.8014 38.4569 72.3455 38.6338 71.937C38.8059 71.5251 38.9875 71.1879 39.1454 70.917C39.4515 70.371 39.6298 70.0763 39.6509 70.0889C39.7203 70.1266 39.0086 71.3191 38.2909 73.4256C38.1146 73.9534 37.9262 74.5316 37.784 75.1711C37.6051 75.8009 37.4989 76.4928 37.3669 77.2162C37.1581 78.6719 37.0472 80.2911 37.1241 81.9891C37.2227 83.685 37.5003 85.2832 37.8575 86.7076C38.0636 87.4121 38.2405 88.0886 38.4827 88.6954C38.6902 89.3161 38.9372 89.8704 39.1665 90.3759C40.0985 92.3916 40.9293 93.5004 40.8639 93.5451Z" fill="white"/>
<path d="M44.7182 65.7514C44.7644 65.847 44.0079 66.2932 43.2296 67.0291C42.4437 67.758 41.9417 68.4897 41.8532 68.4339C41.7709 68.3913 42.16 67.5325 42.9901 66.7603C43.8153 65.9832 44.6841 65.6634 44.7182 65.7514Z" fill="white"/>
<path d="M176.601 52.1218C175.318 36.5085 165.322 6.56877 119.11 0.872115C77.3929 -4.27086 61.9217 14.3775 54.8461 29.4196C50.615 38.4146 55.2761 52.5868 62.6483 59.1073C72.8788 68.156 86.9028 72.2671 99.4838 75.3538C118.99 80.14 133.426 80.8662 151.489 79.3867C164.136 78.3505 172.564 69.5615 175.403 63.5158C176.639 60.8863 176.84 55.0319 176.601 52.1218Z" fill="#E49D67"/>
<path opacity="0.3" d="M96.6155 23.692C96.6155 23.692 94.388 23.4721 92.7769 25.7056C91.8714 26.961 92.3925 27.9985 93.2049 28.4698C94.0009 28.932 95.2602 28.3518 95.8616 27.3534C97.1672 25.1855 96.6155 23.692 96.6155 23.692Z" fill="black"/>
<path opacity="0.3" d="M74.9146 24.4831C74.9146 24.4831 76.8529 25.6302 79.2212 24.282C80.5519 23.5244 80.4961 22.3584 79.9478 21.5841C79.4096 20.8252 78.0292 20.8182 77.0787 21.471C75.0152 22.8898 74.9146 24.4831 74.9146 24.4831Z" fill="black"/>
<path opacity="0.3" d="M102.912 13.1783C102.912 13.1783 101.264 11.6283 98.6658 12.4138C97.2058 12.8551 97.0126 14.0043 97.384 14.8812C97.748 15.7407 99.0937 16.0556 100.16 15.6311C102.475 14.7088 102.912 13.1783 102.912 13.1783Z" fill="black"/>
<path opacity="0.3" d="M117.124 25.188C117.124 25.188 117.077 22.8944 114.729 21.5098C113.41 20.7313 112.467 21.3821 112.105 22.2632C111.751 23.1269 112.459 24.3431 113.495 24.841C115.745 25.9218 117.124 25.188 117.124 25.188Z" fill="black"/>
<path opacity="0.3" d="M105.308 34.6285C105.308 34.6285 103.332 35.7017 103.182 38.477C103.097 40.0368 104.087 40.6087 105.016 40.5444C105.927 40.4809 106.668 39.2863 106.636 38.1126C106.566 35.5634 105.308 34.6285 105.308 34.6285Z" fill="black"/>
<path opacity="0.3" d="M126.681 30.5345C126.681 30.5345 124.979 32.0217 125.417 34.7636C125.663 36.3052 126.751 36.6438 127.645 36.3743C128.521 36.1104 128.992 34.7789 128.713 33.6402C128.106 31.1685 126.681 30.5345 126.681 30.5345Z" fill="black"/>
<path opacity="0.3" d="M147.904 45.8571C147.904 45.8571 147.744 43.5691 145.331 42.3074C143.975 41.5987 143.065 42.2969 142.748 43.1955C142.436 44.0767 143.203 45.2545 144.262 45.6979C146.562 46.6607 147.904 45.8571 147.904 45.8571Z" fill="black"/>
<path opacity="0.3" d="M156.353 36.5469C156.353 36.5469 157.413 34.527 156.033 32.1349C155.259 30.7909 154.126 30.8803 153.388 31.4647C152.666 32.0372 152.698 33.4532 153.361 34.4104C154.8 36.4876 156.353 36.5469 156.353 36.5469Z" fill="black"/>
<path opacity="0.3" d="M140.337 21.6361C140.337 21.6361 141.372 23.67 144.075 23.8397C145.594 23.9353 146.158 22.9229 146.1 21.9685C146.043 21.0336 144.883 20.2663 143.739 20.2928C141.256 20.35 140.337 21.6361 140.337 21.6361Z" fill="black"/>
<path opacity="0.3" d="M116.774 12.2317C116.774 12.2317 117.809 14.2656 120.512 14.4352C122.031 14.5309 122.594 13.5185 122.536 12.5641C122.48 11.6292 121.319 10.8618 120.175 10.8884C117.692 10.9456 116.774 12.2317 116.774 12.2317Z" fill="black"/>
<path d="M96.8719 22.1714C96.8719 22.1714 94.6445 21.9514 93.0334 24.185C92.1278 25.4404 92.649 26.4779 93.4613 26.9492C94.2573 27.4114 95.5167 26.8312 96.1181 25.8327C97.4237 23.6641 96.8719 22.1714 96.8719 22.1714Z" fill="#FFF1E7"/>
<path d="M75.1716 22.9635C75.1716 22.9635 77.1099 24.1107 79.4782 22.7624C80.809 22.0049 80.7532 20.8389 80.2049 20.0646C79.6667 19.3056 78.2863 19.2987 77.3358 19.9515C75.2723 21.3702 75.1716 22.9635 75.1716 22.9635Z" fill="#FFF1E7"/>
<path d="M103.169 11.6574C103.169 11.6574 101.52 10.1074 98.9229 10.8929C97.4629 11.3342 97.2696 12.4834 97.6411 13.3604C98.0051 14.2199 99.3508 14.5347 100.417 14.1102C102.732 13.1872 103.169 11.6574 103.169 11.6574Z" fill="#FFF1E7"/>
<path d="M117.381 23.6695C117.381 23.6695 117.334 21.3759 114.986 19.9913C113.666 19.2135 112.723 19.8635 112.362 20.7447C112.007 21.6084 112.716 22.8246 113.752 23.3225C116.001 24.4026 117.381 23.6695 117.381 23.6695Z" fill="#FFF1E7"/>
<path d="M105.565 33.1068C105.565 33.1068 103.589 34.18 103.439 36.9553C103.354 38.5151 104.344 39.0869 105.274 39.0227C106.185 38.9592 106.925 37.7638 106.893 36.5902C106.823 34.0424 105.565 33.1068 105.565 33.1068Z" fill="#FFF1E7"/>
<path d="M126.938 29.0139C126.938 29.0139 125.236 30.5011 125.674 33.2429C125.92 34.7846 127.007 35.1232 127.901 34.8537C128.778 34.5898 129.248 33.2583 128.969 32.1195C128.364 29.6472 126.938 29.0139 126.938 29.0139Z" fill="#FFF1E7"/>
<path d="M148.161 44.3364C148.161 44.3364 148.002 42.0484 145.588 40.7868C144.232 40.0781 143.322 40.7763 143.005 41.6749C142.693 42.5553 143.46 43.7339 144.52 44.1773C146.818 45.1401 148.161 44.3364 148.161 44.3364Z" fill="#FFF1E7"/>
<path d="M156.609 35.0255C156.609 35.0255 157.669 33.0055 156.29 30.6142C155.515 29.2702 154.383 29.3595 153.645 29.9439C152.922 30.5164 152.954 31.9324 153.618 32.8896C155.057 34.9668 156.609 35.0255 156.609 35.0255Z" fill="#FFF1E7"/>
<path d="M140.594 20.1142C140.594 20.1142 141.629 22.148 144.332 22.3177C145.852 22.4133 146.415 21.4009 146.357 20.4465C146.301 19.5116 145.14 18.7443 143.996 18.7708C141.513 18.8281 140.594 20.1142 140.594 20.1142Z" fill="#FFF1E7"/>
<path d="M117.03 10.711C117.03 10.711 118.065 12.7448 120.768 12.9145C122.287 13.0101 122.851 11.9977 122.793 11.0433C122.736 10.1084 121.576 9.34108 120.432 9.36761C117.949 9.42486 117.03 10.711 117.03 10.711Z" fill="#FFF1E7"/>
<path d="M137.217 80.3909C137.217 80.3971 137.129 80.3999 136.956 80.3992C136.766 80.3965 136.513 80.3923 136.19 80.3874C135.518 80.3699 134.526 80.3539 133.25 80.2896C130.697 80.1814 127.004 79.9636 122.458 79.4853C117.912 79.014 112.514 78.2739 106.568 77.1707C103.596 76.6136 100.487 75.9705 97.2778 75.2395C94.0733 74.5001 90.745 73.7363 87.41 72.6659C84.0722 71.6123 80.8752 70.3898 77.8374 69.0925C76.3216 68.4411 74.833 67.7813 73.4254 67.0251C72.017 66.2753 70.6781 65.4646 69.4086 64.6163C66.8682 62.9218 64.6121 61.0715 62.6343 59.1962C60.6525 57.3326 58.9455 55.4 57.7419 53.3885C55.3042 49.3766 54.3531 45.6147 53.8449 43.0606C53.3476 40.4836 53.2986 39.0271 53.2986 39.0271C53.3047 39.0264 53.321 39.1158 53.3476 39.2903C53.3748 39.483 53.4102 39.74 53.4557 40.0667C53.5558 40.7482 53.7081 41.7529 53.9796 43.0313C54.5273 45.5672 55.5124 49.2963 57.9528 53.2495C59.1584 55.2317 60.8505 57.1253 62.833 58.9734C64.8074 60.8272 67.0573 62.6579 69.5862 64.3342C70.8496 65.1728 72.181 65.9743 73.5805 66.7151C74.9766 67.4615 76.455 68.1129 77.9701 68.7623C81.0004 70.0518 84.1885 71.2674 87.5134 72.3175C90.8321 73.383 94.1495 74.1468 97.3519 74.8911C100.556 75.6263 103.659 76.2749 106.625 76.8405C112.56 77.9597 117.945 78.7256 122.483 79.229C127.02 79.7394 130.707 79.9964 133.255 80.1479C134.515 80.2191 135.5 80.275 136.191 80.3141C136.513 80.3343 136.765 80.3504 136.954 80.3622C137.129 80.3748 137.218 80.3846 137.217 80.3909Z" fill="#263238"/>
<path d="M155.128 70.2943C155.134 70.3187 154.77 70.4276 154.106 70.6043C153.444 70.7858 152.475 71.0071 151.271 71.2424C148.863 71.7158 145.491 72.1696 141.745 72.2597C137.998 72.3435 134.609 72.0461 132.183 71.6851C130.969 71.5064 129.991 71.3304 129.322 71.1796C128.651 71.0337 128.283 70.9415 128.288 70.9171C128.293 70.8926 128.669 70.9373 129.346 71.04C130.021 71.1475 131.002 71.2843 132.215 71.4303C134.64 71.7249 138.011 71.9797 141.737 71.8967C145.462 71.8066 148.817 71.396 151.227 70.9897C152.433 70.7879 153.406 70.6057 154.076 70.4667C154.748 70.332 155.122 70.2698 155.128 70.2943Z" fill="#263238"/>
<g opacity="0.3">
<path d="M87.8077 31.5222C88.7398 31.652 89.4854 32.6128 89.4011 33.5742C89.3167 34.5356 88.4152 35.3434 87.4757 35.3002C86.5354 35.2569 85.7088 34.3694 85.7081 33.4038C85.7074 32.4382 86.5341 31.5501 87.4736 31.5061" fill="#931A00"/>
</g>
<g opacity="0.3">
<path d="M90.7739 12.975C91.706 13.1056 92.4516 14.0656 92.3673 15.0271C92.2829 15.9885 91.3814 16.7963 90.4419 16.753C89.5016 16.7097 88.675 15.8223 88.6743 14.8567C88.6736 13.8911 89.5003 13.003 90.4405 12.959" fill="#931A00"/>
</g>
<g opacity="0.3">
<path d="M158.64 41.5523C160.175 41.7667 161.402 43.3474 161.263 44.9302C161.123 46.5131 159.64 47.8424 158.093 47.7712C156.546 47.7 155.185 46.2394 155.184 44.6503C155.183 43.0611 156.543 41.5991 158.09 41.5265" fill="#931A00"/>
</g>
<g opacity="0.3">
<path d="M131.159 17.7527C131.927 17.8595 132.54 18.6499 132.47 19.4416C132.401 20.2334 131.659 20.8981 130.886 20.8625C130.112 20.8269 129.431 20.0966 129.431 19.302C129.431 18.5074 130.111 17.7764 130.885 17.7401" fill="#D27A4B"/>
</g>
<g opacity="0.3">
<path d="M91.6467 37.7316C91.2732 37.8461 91.0269 38.3153 91.1841 38.6819C91.3412 39.0484 91.8998 39.1588 92.1481 38.8502C92.3971 38.5409 92.0345 37.6842 91.6467 37.7316Z" fill="#931A00"/>
</g>
<path d="M81.4593 7.06768C81.4634 7.07955 81.3593 7.13121 81.158 7.21919C80.9178 7.31903 80.6252 7.43982 80.2728 7.58644C79.8857 7.73726 79.4149 7.92787 78.8808 8.18201C78.3454 8.43127 77.7242 8.68612 77.069 9.04011C76.405 9.37455 75.6805 9.7439 74.9293 10.1942C74.1612 10.6125 73.3829 11.1319 72.5536 11.6612C70.9241 12.7657 69.1954 14.0784 67.502 15.6046C65.8215 17.1477 64.3438 18.7521 63.0797 20.2798C62.4687 21.0611 61.8728 21.7928 61.3761 22.5252C60.8509 23.236 60.4059 23.9307 60.0031 24.5668C59.5827 25.1917 59.2609 25.7942 58.9561 26.3095C58.6465 26.8227 58.4057 27.2793 58.2131 27.6556C58.0295 27.9971 57.8771 28.2805 57.7519 28.513C57.643 28.7078 57.5804 28.807 57.5689 28.8021C57.558 28.7965 57.5988 28.6862 57.6872 28.4816C57.7968 28.24 57.9294 27.9461 58.09 27.5914C58.2642 27.2039 58.488 26.7354 58.7826 26.2097C59.0731 25.6818 59.3806 25.0667 59.7909 24.4292C60.1828 23.7799 60.6182 23.0733 61.1373 22.3493C61.6271 21.6043 62.2191 20.86 62.828 20.0669C64.088 18.5148 65.5711 16.8893 67.2659 15.3337C68.9736 13.7942 70.7234 12.4781 72.376 11.3805C73.2169 10.8547 74.0068 10.3416 74.7865 9.93171C75.5491 9.48975 76.2853 9.13087 76.9602 8.8097C77.6263 8.46898 78.2583 8.22879 78.8033 7.99629C79.3469 7.7589 79.8272 7.58644 80.2231 7.45588C80.5858 7.33509 80.8858 7.23455 81.1328 7.15216C81.3444 7.08444 81.4559 7.05581 81.4593 7.06768Z" fill="white"/>
<path d="M88.6429 5.17605C88.6681 5.2731 87.8571 5.57961 86.8318 5.85959C85.8058 6.14027 84.9547 6.28899 84.9295 6.19193C84.9044 6.09488 85.7153 5.78907 86.7406 5.50839C87.7659 5.22771 88.6177 5.079 88.6429 5.17605Z" fill="white"/>
<path opacity="0.3" d="M106.569 77.1702C103.597 76.613 100.488 75.97 97.279 75.239C94.0746 74.4996 90.7463 73.7357 87.4112 72.6654C84.0734 71.6118 80.8765 70.3892 77.8387 69.092C76.3229 68.4406 74.8343 67.7808 73.4266 67.0246C72.0183 66.2747 70.6794 65.4641 69.4098 64.6158C66.8694 62.9212 64.6134 61.071 62.6356 59.1956C61.9845 58.5833 61.3674 57.9633 60.7837 57.3363C59.5679 57.5828 58.212 57.8949 56.7676 58.2963C57.3023 63.7074 60.4966 68.5823 64.5896 72.0482C68.7363 75.5595 73.7518 77.8007 78.7864 79.734C85.8913 82.4612 93.1867 84.6654 100.598 86.3251C110.734 88.5949 122 89.645 130.905 84.25C129.616 82.788 128.154 81.3217 126.559 79.8681C125.282 79.7633 123.919 79.6391 122.457 79.4848C117.913 79.0135 112.515 78.2727 106.569 77.1702Z" fill="black"/>
<path opacity="0.3" d="M69.2275 171.542L69.4357 172.844C82.1426 179.64 96.9817 181.535 110.962 178.311C124.943 175.087 137.722 166.647 146.374 154.924C146.048 154.712 145.72 154.498 145.391 154.285C135.914 159.935 120.364 166.473 108.342 169.303C97.4484 171.867 82.7025 173.34 69.2275 171.542Z" fill="black"/>
<path opacity="0.3" d="M162.727 237.166C159.669 237.662 157.021 234.733 153.934 234.502C152.589 234.4 151.252 234.824 149.904 234.788C148.556 234.752 147.035 234.019 146.807 232.656C146.464 234.341 144.502 235.235 142.844 234.969C141.186 234.704 139.785 233.61 138.461 232.552C141.242 236.751 140.292 243.089 136.409 246.234C132.526 249.38 126.298 248.859 122.964 245.108C122.51 246.787 120.599 247.68 118.907 247.528C117.216 247.375 115.7 246.44 114.253 245.529C113.359 247.786 112.104 250.357 109.766 250.777C109.034 250.908 108.25 250.806 107.573 251.12C106.431 251.649 106.066 253.084 105.59 254.274C104.518 256.953 102.114 259.113 99.3209 259.521C96.5267 259.929 93.4808 258.38 92.3752 255.716C92.0534 257.708 90.2375 259.333 88.2706 259.391C86.3038 259.449 84.4015 257.932 83.9688 255.962C82.0182 257.595 79.0478 256.389 77.1388 254.705C75.7631 253.491 74.5915 252.045 73.6567 250.451C73.7125 253.539 74.6446 256.616 76.3809 259.141C79.0152 262.973 83.4286 265.453 87.9937 265.667C91.0642 270.558 97.9269 272.456 102.976 269.811C105.073 268.712 106.882 266.943 109.182 266.429C111.474 265.917 114.163 266.662 115.999 265.163C117.152 264.221 117.591 262.66 118.317 261.343C119.336 259.494 121.027 258.044 122.981 257.342C127.5 255.72 133.186 257.935 136.897 254.833C139.739 256.534 143.534 256.385 146.242 254.468C148.95 252.55 150.431 248.962 149.89 245.632C153.159 246.811 157.141 245.332 158.917 242.278C162.176 242.651 165.547 243.016 168.675 242.006C171.803 240.996 174.64 238.226 174.7 234.861C174.744 232.343 173.28 230.118 171.42 228.392C170.375 230.401 168.813 232.228 167.3 233.92C166.022 235.349 164.596 236.863 162.727 237.166Z" fill="black"/>
</svg>
