<svg width="78" height="35" viewBox="0 0 78 35" fill="none" xmlns="http://www.w3.org/2000/svg">
<path d="M39.2373 16.7905C37.6941 16.9084 36.3683 16.7682 35.2598 16.3697C34.1513 15.9713 33.2768 15.2551 32.6364 14.2213C31.9948 13.1731 31.5966 11.7483 31.442 9.94691C31.3071 8.37612 31.443 6.99984 31.8497 5.81808C32.2707 4.63508 32.9446 3.69169 33.8714 2.98791C34.7969 2.26972 35.973 1.8494 37.3997 1.72695C38.6535 1.61934 39.7642 1.70547 40.7318 1.98535C41.6995 2.26522 42.479 2.72094 43.0703 3.35249C43.6749 3.96839 44.0456 4.73502 44.1824 5.65238C44.3155 6.5265 44.2298 7.30327 43.9252 7.98269C43.635 8.66087 43.1657 9.28183 42.5172 9.84559C43.029 9.88876 43.5071 10.1308 43.9514 10.5717C44.4102 11.0114 44.6686 11.5699 44.7268 12.2473C44.7664 12.7084 44.7129 13.1848 44.5664 13.6765C44.4199 14.1681 44.1406 14.6348 43.7285 15.0767C43.3308 15.5173 42.7606 15.8929 42.0178 16.2034C41.2882 16.4983 40.3614 16.694 39.2373 16.7905ZM37.0536 8.85555C37.3673 8.95928 37.7332 8.99321 38.1511 8.95734C38.5678 8.90705 38.9254 8.76023 39.2239 8.51685C39.5368 8.27224 39.674 7.92656 39.6357 7.47982C39.6072 7.14837 39.4835 6.89042 39.2644 6.70598C39.0597 6.52031 38.8102 6.40381 38.5158 6.3565C38.2201 6.29477 37.9216 6.2841 37.6202 6.32448C37.3188 6.36487 37.065 6.45198 36.8587 6.58582C36.596 6.73902 36.4279 6.97847 36.3542 7.30417C36.295 7.62864 36.3222 7.94568 36.4359 8.2553C36.5627 8.54927 36.7686 8.74936 37.0536 8.85555ZM37.4878 13.9138C37.8004 14.0031 38.1656 14.0298 38.5835 13.994C39.0002 13.9437 39.359 13.8113 39.66 13.5967C39.9754 13.3809 40.1163 13.0785 40.0829 12.6894C40.0582 12.4012 39.9375 12.1793 39.7209 12.0236C39.5175 11.8524 39.2686 11.7431 38.9742 11.6958C38.6798 11.6485 38.3825 11.6522 38.0823 11.707C37.7809 11.7474 37.5258 11.8201 37.3171 11.9251C37.0532 12.0639 36.8825 12.2745 36.8052 12.557C36.7422 12.8382 36.7657 13.112 36.8757 13.3784C37.0001 13.6436 37.2041 13.822 37.4878 13.9138Z" fill="#F9704B"/>
<path d="M50.0886 15.9027C49.0234 16.0086 48.0681 15.8729 47.2227 15.4954C46.3905 15.1023 45.7104 14.5364 45.1825 13.7978C44.6677 13.0435 44.355 12.1921 44.2446 11.2434C44.146 10.2647 44.2952 9.38087 44.692 8.59192C45.0876 7.78856 45.6769 7.12825 46.46 6.61101C47.243 6.09377 48.1606 5.79 49.2126 5.69971C50.249 5.59624 51.1826 5.73386 52.0136 6.11257C52.859 6.49005 53.5522 7.04027 54.0934 7.76323C54.6345 8.4862 54.9615 9.33642 55.0745 10.3139C55.1693 11.2494 55.0196 12.126 54.6252 12.9438C54.2296 13.7471 53.6409 14.4146 52.8591 14.9463C52.076 15.4635 51.1525 15.7823 50.0886 15.9027ZM49.8825 12.7411C50.2715 12.7077 50.5972 12.5273 50.8595 12.2C51.1217 11.8726 51.2355 11.5072 51.2009 11.1037C51.1662 10.7001 50.9924 10.3666 50.6794 10.1032C50.3652 9.82527 50.0136 9.70302 49.6245 9.73642C49.2354 9.76982 48.9097 9.9502 48.6475 10.2776C48.384 10.5905 48.2696 10.9488 48.3042 11.3523C48.3389 11.7558 48.5133 12.0965 48.8275 12.3744C49.1417 12.6523 49.4934 12.7745 49.8825 12.7411Z" fill="#F9704B"/>
<path d="M61.2895 14.9195C60.2519 15.0086 59.3677 14.9393 58.6368 14.7117C57.9047 14.4697 57.2876 14.1307 56.7856 13.6947C56.2981 13.2575 55.9004 12.769 55.5928 12.2292C55.2995 11.6882 55.0718 11.1489 54.9095 10.6111C54.7472 10.0734 54.6324 9.58242 54.5653 9.13815C54.5125 8.69265 54.4768 8.36181 54.4583 8.14565C54.4014 7.48274 54.378 6.78793 54.3882 6.06119C54.3984 5.33446 54.4537 4.62563 54.554 3.93471C54.6532 3.22937 54.8089 2.59177 55.0213 2.02188C55.2481 1.45077 55.5346 0.983401 55.8809 0.619789C56.2271 0.256177 56.6596 0.0521073 57.1784 0.00757914C57.6396 -0.0320014 58.0705 0.0834443 58.4711 0.353916C58.8862 0.62315 59.121 1.07481 59.1754 1.70889C59.2286 2.32857 59.1803 2.94969 59.0305 3.57227C58.8939 4.1792 58.8234 4.79497 58.8189 5.41959C59.1343 5.2038 59.4763 5.0438 59.8448 4.93959C60.212 4.82096 60.5758 4.74619 60.9361 4.71526C61.6999 4.64971 62.4503 4.76676 63.1874 5.06643C63.9232 5.35169 64.5454 5.83542 65.054 6.51762C65.577 7.19859 65.8868 8.10111 65.9833 9.22516C66.0588 10.1042 65.9222 10.9652 65.5736 11.8081C65.2393 12.6497 64.7048 13.3562 63.9699 13.9273C63.2494 14.4973 62.3559 14.828 61.2895 14.9195ZM60.8666 11.5153C61.2557 11.4819 61.582 11.3087 61.8455 10.9957C62.1221 10.6671 62.2431 10.3011 62.2085 9.89757C62.1738 9.49406 61.9922 9.15398 61.6636 8.87732C61.3494 8.59943 60.9977 8.47718 60.6086 8.51058C60.2195 8.54397 59.8939 8.72435 59.6316 9.05172C59.3694 9.37909 59.2556 9.74453 59.2902 10.148C59.3249 10.5515 59.4993 10.8922 59.8135 11.1701C60.1265 11.4336 60.4775 11.5487 60.8666 11.5153Z" fill="#F9704B"/>
<path d="M71.4223 14.0716C70.3571 14.1776 69.4018 14.0418 68.5565 13.6643C67.7243 13.2712 67.0442 12.7053 66.5162 11.9667C66.0014 11.2125 65.6888 10.361 65.5783 9.41235C65.4798 8.43364 65.6289 7.54981 66.0257 6.76086C66.4213 5.9575 67.0106 5.29719 67.7937 4.77995C68.5768 4.26271 69.4943 3.95894 70.5464 3.86865C71.5827 3.76518 72.5164 3.9028 73.3473 4.28151C74.1927 4.65899 74.886 5.20921 75.4271 5.93217C75.9682 6.65514 76.2953 7.50535 76.4082 8.48283C76.5031 9.41831 76.3533 10.2949 75.959 11.1127C75.5634 11.9161 74.9747 12.5836 74.1928 13.1152C73.4098 13.6325 72.4863 13.9513 71.4223 14.0716ZM71.2162 10.9101C71.6053 10.8767 71.931 10.6963 72.1932 10.3689C72.4555 10.0415 72.5693 9.6761 72.5346 9.27259C72.5 8.86908 72.3262 8.53559 72.0132 8.27211C71.699 7.99421 71.3473 7.87197 70.9582 7.90536C70.5691 7.93876 70.2435 8.11914 69.9812 8.44651C69.7178 8.75947 69.6033 9.1177 69.638 9.52121C69.6726 9.92471 69.847 10.2654 70.1613 10.5433C70.4755 10.8212 70.8271 10.9434 71.2162 10.9101Z" fill="#F9704B"/>
<path d="M37.4985 33.6201C36.8356 33.677 36.2243 33.49 35.6647 33.0589C35.1182 32.6122 34.6551 31.8681 34.2753 30.8264C33.91 29.7835 33.6537 28.4046 33.5064 26.6897C33.4062 25.5224 33.502 24.4399 33.7938 23.4422C34.0856 22.4445 34.5333 21.5713 35.1368 20.8227C35.7391 20.0597 36.4637 19.4531 37.3106 19.0029C38.1563 18.5384 39.0763 18.2634 40.0706 18.1781C41.7423 18.0346 43.0208 18.2152 43.9062 18.7199C44.8047 19.209 45.2966 19.9507 45.382 20.945C45.4463 21.6944 45.3138 22.2647 44.9845 22.6559C44.6683 23.0314 44.1909 23.3047 43.5523 23.4756C42.9281 23.6454 42.1837 23.7673 41.319 23.8415C40.829 23.8836 40.3669 23.9958 39.9325 24.1783C39.4969 24.3463 39.1467 24.5796 38.882 24.8782C38.6305 25.1611 38.4998 25.4989 38.49 25.8917C38.4961 25.9638 38.4945 26.0293 38.485 26.0881C38.7432 26.0515 39.002 26.022 39.2614 25.9997C39.5208 25.9775 39.7802 25.9552 40.0396 25.9329C40.6737 25.8785 41.294 25.8325 41.9005 25.795C42.5201 25.7418 43.0865 25.744 43.5996 25.8016C44.1114 25.8448 44.5297 25.9831 44.8546 26.2165C45.1795 26.4499 45.3636 26.8188 45.4069 27.3232C45.454 27.8708 45.3379 28.2945 45.0588 28.5943C44.7784 28.8797 44.3897 29.0872 43.8928 29.217C43.3958 29.3468 42.8375 29.4382 42.2178 29.4914C41.6113 29.5289 40.991 29.5749 40.3569 29.6294C40.1264 29.6491 39.8964 29.6761 39.6671 29.7103C39.4509 29.7289 39.2275 29.7481 38.9969 29.7679C39.0431 29.9671 39.0826 30.1742 39.1156 30.3892C39.1486 30.6041 39.175 30.8268 39.1948 31.0574C39.2294 31.4609 39.2052 31.855 39.122 32.2396C39.0521 32.6085 38.8901 32.92 38.6361 33.1741C38.3821 33.4281 38.0029 33.5768 37.4985 33.6201Z" fill="#F9704B"/>
<path d="M51.816 32.4348C50.7508 32.5408 49.7955 32.405 48.9501 32.0275C48.1179 31.6344 47.4378 31.0685 46.9099 30.3299C46.3951 29.5757 46.0824 28.7242 45.972 27.7755C45.8734 26.7968 46.0226 25.913 46.4194 25.1241C46.815 24.3207 47.4043 23.6604 48.1874 23.1431C48.9704 22.6259 49.888 22.3221 50.94 22.2318C51.9764 22.1284 52.91 22.266 53.741 22.6447C54.5864 23.0222 55.2796 23.5724 55.8208 24.2954C56.3619 25.0183 56.6889 25.8685 56.8019 26.846C56.8967 27.7815 56.747 28.6581 56.3526 29.4759C55.957 30.2793 55.3683 30.9468 54.5865 31.4784C53.8034 31.9957 52.8799 32.3145 51.816 32.4348ZM51.6099 29.2732C51.999 29.2398 52.3246 29.0595 52.5869 28.7321C52.8491 28.4047 52.9629 28.0393 52.9283 27.6358C52.8936 27.2323 52.7198 26.8988 52.4068 26.6353C52.0926 26.3574 51.741 26.2352 51.3519 26.2686C50.9628 26.302 50.6371 26.4823 50.3749 26.8097C50.1114 27.1227 49.997 27.4809 50.0316 27.8844C50.0663 28.2879 50.2407 28.6286 50.5549 28.9065C50.8691 29.1844 51.2208 29.3066 51.6099 29.2732Z" fill="#F9704B"/>
<path d="M62.219 31.5419C61.1538 31.6479 60.1985 31.5121 59.3531 31.1346C58.5209 30.7415 57.8408 30.1756 57.3129 29.437C56.7981 28.6828 56.4854 27.8313 56.375 26.8827C56.2764 25.904 56.4256 25.0201 56.8224 24.2312C57.218 23.4278 57.8073 22.7675 58.5904 22.2503C59.3734 21.733 60.291 21.4292 61.343 21.339C62.3794 21.2355 63.313 21.3731 64.144 21.7518C64.9894 22.1293 65.6826 22.6795 66.2238 23.4025C66.7649 24.1254 67.0919 24.9757 67.2049 25.9531C67.2997 26.8886 67.15 27.7652 66.7556 28.583C66.36 29.3864 65.7713 30.0539 64.9895 30.5855C64.2064 31.1028 63.2829 31.4216 62.219 31.5419ZM62.0129 28.3804C62.402 28.347 62.7276 28.1666 62.9899 27.8392C63.2521 27.5118 63.3659 27.1464 63.3313 26.7429C63.2966 26.3394 63.1228 26.0059 62.8098 25.7424C62.4956 25.4645 62.144 25.3423 61.7549 25.3757C61.3658 25.4091 61.0401 25.5895 60.7779 25.9168C60.5144 26.2298 60.4 26.588 60.4346 26.9915C60.4693 27.395 60.6437 27.7357 60.9579 28.0136C61.2721 28.2915 61.6238 28.4138 62.0129 28.3804Z" fill="#F9704B"/>
<path d="M72.3607 30.6497C71.2943 30.7412 70.3503 30.5682 69.5288 30.1306C68.7217 29.6918 68.0746 29.0868 67.5874 28.3156C67.1146 27.5433 66.8405 26.7175 66.765 25.8385C66.6685 24.7144 66.8127 23.7729 67.1975 23.014C67.5968 22.2539 68.1347 21.6706 68.8112 21.2641C69.4864 20.8433 70.2059 20.6 70.9697 20.5345C71.3299 20.5036 71.7011 20.5153 72.0832 20.5696C72.4641 20.6095 72.8283 20.7089 73.1759 20.8677C73.065 20.253 72.8834 19.6589 72.6309 19.0854C72.3916 18.4962 72.2453 17.8917 72.1921 17.2721C72.1377 16.638 72.292 16.1529 72.6551 15.8169C73.0182 15.4809 73.4232 15.2937 73.8699 15.2554C74.3887 15.2108 74.8497 15.3382 75.2528 15.6375C75.656 15.9368 76.0108 16.3491 76.3172 16.8745C76.638 17.3986 76.9074 17.9997 77.1253 18.6778C77.3419 19.3415 77.5172 20.0306 77.6512 20.7449C77.7851 21.4593 77.8805 22.1479 77.9374 22.8108C77.956 23.027 77.97 23.3597 77.9795 23.8089C78.0035 24.2569 77.9813 24.7596 77.913 25.3172C77.8448 25.8747 77.7051 26.4456 77.4939 27.0299C77.2972 27.6129 76.9886 28.162 76.5683 28.6772C76.1624 29.1911 75.6194 29.6296 74.9392 29.9929C74.2578 30.3417 73.3983 30.5606 72.3607 30.6497ZM72.1972 27.2232C72.5863 27.1898 72.9126 27.0166 73.176 26.7036C73.4383 26.3763 73.5521 26.0108 73.5174 25.6073C73.4828 25.2038 73.3084 24.8631 72.9942 24.5852C72.68 24.3073 72.3283 24.1851 71.9392 24.2185C71.5501 24.2519 71.2172 24.4329 70.9406 24.7615C70.6784 25.0888 70.5646 25.4543 70.5992 25.8578C70.6338 26.2613 70.8083 26.602 71.1225 26.8799C71.4498 27.1421 71.8081 27.2566 72.1972 27.2232Z" fill="#F9704B"/>
<g clip-path="url(#clip0_159_11803)">
<path d="M29.2151 24.9608C29.1693 26.9747 28.3921 28.9032 27.0286 30.386C25.6651 31.8689 23.8085 32.8048 21.8054 33.019L12.3885 34.0095C10.419 34.2141 8.44135 33.7067 6.81371 32.5791C5.18608 31.4515 4.01609 29.7783 3.51566 27.8626C3.62315 27.8774 3.72493 27.906 3.83521 27.9134C5.56344 28.0256 7.22781 28.6096 8.64722 29.6019C9.62615 30.2958 10.8243 30.6093 12.0176 30.4838C13.2109 30.3583 14.3177 29.8023 15.1308 28.92C16.6875 27.2519 18.7942 26.202 21.0633 25.9634L28.126 25.2205C28.4981 25.1776 28.8637 25.0904 29.2151 24.9608ZM1.74578 23.3465C1.80105 23.9189 2.05618 24.4535 2.46638 24.8565C2.87658 25.2595 3.41564 25.5052 3.98893 25.5503C6.14879 25.6913 8.22865 26.4217 10.0023 27.6623C10.5158 28.0255 11.1439 28.1895 11.7694 28.1237C12.3949 28.0579 12.9751 27.7668 13.4018 27.3047C15.3473 25.2201 17.9799 23.9078 20.8157 23.6091L27.8784 22.8663C28.5028 22.8006 29.0755 22.4896 29.4706 22.0017C29.8657 21.5137 30.0507 20.8888 29.9851 20.2644C29.9194 19.6401 29.6084 19.0673 29.1204 18.6723C28.6325 18.2772 28.0076 18.0922 27.3832 18.1578L3.95142 20.6223C3.29769 20.6911 2.69805 21.0167 2.28441 21.5276C1.87078 22.0385 1.67703 22.6927 1.74578 23.3465ZM28.312 15.6727L28.3303 15.8469C27.9355 15.7819 27.534 15.7673 27.1356 15.8036L3.70381 18.2681C3.26818 18.3204 2.84184 18.4325 2.43683 18.6013L2.41529 18.3965C2.09047 15.2753 3.01705 12.1527 4.99173 9.71378C6.96641 7.2749 9.82791 5.71893 12.9484 5.38725L15.3027 5.13964C18.4239 4.81482 21.5465 5.74139 23.9854 7.71606C26.4243 9.69073 27.9803 12.5522 28.312 15.6727ZM9.10659 14.1223C9.07376 13.8101 8.91825 13.5237 8.67428 13.3262C8.43031 13.1287 8.11786 13.0362 7.80566 13.069C7.49347 13.1018 7.20711 13.2573 7.00958 13.5013C6.81204 13.7453 6.71952 14.0577 6.75235 14.3699C6.78519 14.6821 6.9407 14.9685 7.18467 15.166C7.42864 15.3635 7.74109 15.4561 8.05328 15.4232C8.36547 15.3904 8.65183 15.2349 8.84937 14.9909C9.0469 14.7469 9.13943 14.4345 9.10659 14.1223ZM12.2665 10.2195C12.2337 9.90733 12.0782 9.62097 11.8342 9.42344C11.5902 9.22591 11.2778 9.13338 10.9656 9.16622C10.6534 9.19905 10.3671 9.35456 10.1695 9.59853C9.97198 9.8425 9.87946 10.1549 9.91229 10.4671C9.94513 10.7793 10.1006 11.0657 10.3446 11.2632C10.5886 11.4608 10.901 11.5533 11.2132 11.5204C11.5254 11.4876 11.8118 11.3321 12.0093 11.0881C12.2068 10.8442 12.2994 10.5317 12.2665 10.2195Z" fill="#F9704B"/>
</g>
<defs>
<clipPath id="clip0_159_11803">
<rect width="28.4067" height="28.4066" fill="white" transform="translate(0 6.74915) rotate(-6.0042)"/>
</clipPath>
</defs>
</svg>
